<?xml version="1.0" encoding="utf-8"?>
<!-- Generator: Adobe Illustrator 25.2.0, SVG Export Plug-In . SVG Version: 6.00 Build 0)  -->
<svg version="1.1" id="Layer_1" xmlns="http://www.w3.org/2000/svg" xmlns:xlink="http://www.w3.org/1999/xlink" x="0px" y="0px"
	 viewBox="0 0 461.97 281.24" style="enable-background:new 0 0 461.97 281.24;" xml:space="preserve">
<style type="text/css">
	.st0{fill:url(#SVGID_1_);}
	.st1{fill:url(#SVGID_2_);}
	.st2{fill:#F47D5D;}
	.st3{fill:url(#SVGID_3_);}
	.st4{fill:url(#SVGID_4_);}
	.st5{fill:#374357;}
	.st6{fill:url(#SVGID_5_);}
	.st7{fill:#229CD8;}
	.st8{fill:url(#SVGID_6_);}
	.st9{enable-background:new    ;}
	.st10{fill:#3C495D;}
	.st11{fill:#C4C9CE;}
	.st12{fill:#010101;}
	.st13{fill:#677284;}
	.st14{fill:url(#SVGID_7_);}
	.st15{fill:url(#SVGID_8_);}
	.st16{fill:url(#SVGID_9_);}
	.st17{fill:url(#SVGID_10_);}
	.st18{fill:url(#SVGID_11_);}
	.st19{fill:url(#SVGID_12_);}
	.st20{fill:#172232;}
	.st21{fill:url(#SVGID_13_);}
	.st22{fill:url(#SVGID_14_);}
	.st23{fill:url(#SVGID_15_);}
	.st24{fill:url(#SVGID_16_);}
	.st25{fill:url(#SVGID_17_);}
	.st26{fill:url(#SVGID_18_);}
	.st27{fill:url(#SVGID_19_);}
	.st28{fill:url(#SVGID_20_);}
	.st29{fill:url(#SVGID_21_);}
	.st30{fill:url(#SVGID_22_);}
	.st31{fill:#0376BD;}
	.st32{fill:url(#SVGID_23_);}
	.st33{fill:url(#SVGID_24_);}
	.st34{fill:#FFFFFF;}
	.st35{fill:url(#SVGID_25_);}
	.st36{fill:url(#SVGID_26_);}
	.st37{fill:#444860;}
	.st38{fill:url(#SVGID_27_);}
	.st39{fill:url(#SVGID_28_);}
	.st40{fill:url(#SVGID_29_);}
	.st41{fill:url(#SVGID_30_);}
	.st42{fill:url(#SVGID_31_);}
	.st43{fill:url(#SVGID_32_);}
	.st44{fill:url(#SVGID_33_);}
	.st45{fill:url(#SVGID_34_);}
	.st46{fill:url(#SVGID_35_);}
	.st47{fill:url(#SVGID_36_);}
	.st48{fill:url(#SVGID_37_);}
	.st49{fill:url(#SVGID_38_);}
	.st50{fill:url(#SVGID_39_);}
	.st51{fill:url(#SVGID_40_);}
	.st52{fill:url(#SVGID_41_);}
	.st53{fill:url(#SVGID_42_);}
	.st54{fill:#C0CACE;}
	.st55{fill:url(#SVGID_43_);}
	.st56{fill:url(#SVGID_44_);}
	.st57{fill:url(#SVGID_45_);}
	.st58{fill:url(#SVGID_46_);}
	.st59{fill:url(#SVGID_47_);}
	.st60{fill:url(#SVGID_48_);}
	.st61{fill:url(#SVGID_49_);}
	.st62{opacity:0.5;fill:url(#SVGID_50_);}
	.st63{fill:url(#SVGID_51_);}
	.st64{fill:url(#SVGID_52_);}
	.st65{fill:url(#SVGID_53_);}
	.st66{fill:url(#SVGID_54_);}
	.st67{fill:url(#SVGID_55_);}
	.st68{fill:url(#SVGID_56_);}
	.st69{fill:url(#SVGID_57_);}
	.st70{fill:url(#SVGID_58_);}
	.st71{fill:url(#SVGID_59_);}
	.st72{fill:url(#SVGID_60_);}
	.st73{fill:url(#SVGID_61_);}
</style>
<g>
	<g>
		<linearGradient id="SVGID_1_" gradientUnits="userSpaceOnUse" x1="259.4253" y1="106.4497" x2="250.4573" y2="24.9572">
			<stop  offset="2.700000e-07" style="stop-color:#FFFFFF"/>
			<stop  offset="1" style="stop-color:#D8DDE0"/>
		</linearGradient>
		<polygon class="st0" points="235.07,143.88 277.84,143.88 277.84,15.07 235.07,13.79 		"/>
		<linearGradient id="SVGID_2_" gradientUnits="userSpaceOnUse" x1="315.0797" y1="106.9227" x2="306.2319" y2="26.5227">
			<stop  offset="2.700000e-07" style="stop-color:#FFFFFF"/>
			<stop  offset="1" style="stop-color:#D8DDE0"/>
		</linearGradient>
		<polygon class="st1" points="291.31,143.88 332.99,143.88 332.99,16.73 291.31,15.48 		"/>
	</g>
	<g>
		<g>
			<path class="st2" d="M347.92,136.96c-0.68-0.83,0.76-4.4,1.27-4.99c0.51-0.59-0.5-0.53-0.68-0.07c0,0,0.48-1.31,0.86-1.73
				c0.38-0.42-0.58-0.44-1.09,0.42c0,0,0.17-0.4,0.27-0.49s-0.54-0.5-1.16,0.89c0,0-0.39-0.46-0.75,0.26
				c-0.36,0.72-0.76,2.08-0.76,2.08s-0.2-0.87-0.05-1.58c0.14-0.71-0.65,0.05-0.72,1.09c-0.07,1.03-0.14,2.22-0.51,2.96
				c-0.37,0.74,1.1,1.73,1.63,2.95c0.53,1.22,3.56,8.11,4.86,9.39c1.3,1.28,4.78-0.6,2.53-3.16
				C353.62,144.99,348.6,137.79,347.92,136.96z"/>
		</g>
		<g>
			<g>
				<linearGradient id="SVGID_3_" gradientUnits="userSpaceOnUse" x1="348.2748" y1="133.7983" x2="348.2748" y2="143.5431">
					<stop  offset="2.700000e-07" style="stop-color:#FFFFFF"/>
					<stop  offset="1" style="stop-color:#D36649"/>
				</linearGradient>
				<path class="st3" d="M346.73,138.2c-0.59-1.09-0.96-2.46-0.88-3.7c0.04-0.57,0.67-2.86,0.91-3.44c-0.04,0.05-0.08,0.12-0.12,0.2
					c-0.36,0.72-0.76,2.08-0.76,2.08s-0.2-0.87-0.05-1.58c0.14-0.71-0.65,0.05-0.72,1.09c-0.07,1.03-0.14,2.22-0.51,2.96
					c-0.37,0.74,1.1,1.73,1.63,2.95c0.53,1.22,3.56,8.11,4.86,9.39c0.92,0.91,1.33-1.52,0.4-3.93
					C350.95,142.82,347.19,139.04,346.73,138.2z"/>
			</g>
		</g>
		<g>
			<path class="st2" d="M340.72,181.04c-2.82,0-2.79-1.74-2.25-5.01c0.53-3.27,2.65-9.79,2.65-9.79s-3.61-5.99-4.86-3.05
				c-1.25,2.94-1.79,14.15-1.84,16.15c-0.04,2-1.99,4.84,0.2,5.73c2.18,0.88,2.65-0.2,4.48-0.2c1.83,0,4.6-0.49,5.4-2.06
				C345.3,181.23,343.54,181.04,340.72,181.04z"/>
			<linearGradient id="SVGID_4_" gradientUnits="userSpaceOnUse" x1="338.9689" y1="181.1397" x2="338.9689" y2="173.6392">
				<stop  offset="2.700000e-07" style="stop-color:#FFFFFF"/>
				<stop  offset="1" style="stop-color:#D36649"/>
			</linearGradient>
			<path class="st4" d="M337.81,182.34c-3.14-1.47,0.68-16.2,1.05-17.06c-1.13-0.25-2.68-3.57-3.29-2.15
				c-1.25,2.94-1.11,14.2-1.15,16.19c-0.04,2-1.99,4.84,0.2,5.73c2.18,0.88,2.65-0.2,4.48-0.2c1.74,0,4.32-0.44,5.26-1.83
				c-0.35,0.1-0.7,0.15-1.06,0.15C341.99,183.17,339.11,182.96,337.81,182.34z"/>
			<path class="st5" d="M341.48,181.04c-0.67,1.17-1.86,1.98-3.44,1.98c-1.33,0-2.72-0.44-3.87-1.36c-0.07-0.05-0.13-0.11-0.2-0.17
				c-0.43,1.51-0.81,2.98,0.65,3.57c2.18,0.88,2.65-0.2,4.48-0.2c1.83,0,4.6-0.49,5.4-2.06
				C345.23,181.38,343.84,181.08,341.48,181.04z"/>
		</g>
		<g>
			<path class="st2" d="M344.23,182.21c-2.82,0-2.58-2.48-1-5.04c1.58-2.55,3.98-9.77,3.98-9.77s-3.54-2.58-5.3,0.36
				c-1.77,2.94-3.29,10.74-3.68,12.74c-0.39,2-2.83,4.84-0.8,5.73c2.03,0.88,2.68-0.2,4.52-0.2c1.83,0,4.68-0.49,5.76-2.06
				C348.78,182.41,347.05,182.21,344.23,182.21z"/>
			<linearGradient id="SVGID_5_" gradientUnits="userSpaceOnUse" x1="342.0736" y1="183.834" x2="342.0736" y2="175.1942">
				<stop  offset="2.700000e-07" style="stop-color:#FFFFFF"/>
				<stop  offset="1" style="stop-color:#D36649"/>
			</linearGradient>
			<path class="st6" d="M341.09,183.52c-2.88-1.47,0.68-7.79,1.56-9.57c0.44-0.87,0.95-1.71,1.36-2.59
				c0.13-0.45,0.22-0.91,0.29-1.38c0.01-0.22,0.03-0.44,0.04-0.66c0.05-1.04,0.26-2.01,0.78-2.86c-1.08-0.25-2.36-0.12-3.21,1.31
				c-1.77,2.94-3.29,10.74-3.68,12.74c-0.39,2-2.83,4.84-0.8,5.73c2.03,0.88,2.68-0.2,4.52-0.2c1.74,0,4.4-0.44,5.58-1.83
				c-0.36,0.1-0.73,0.15-1.09,0.15C345.13,184.35,342.29,184.14,341.09,183.52z"/>
			<path class="st5" d="M344.99,182.22c-0.87,1.17-2.2,1.98-3.79,1.98c-1.33,0-2.65-0.44-3.63-1.36c-0.06-0.05-0.12-0.11-0.17-0.17
				c-0.69,1.51-1.33,2.98,0.02,3.57c2.03,0.88,2.68-0.2,4.52-0.2c1.83,0,4.68-0.49,5.76-2.06
				C348.68,182.56,347.34,182.26,344.99,182.22z"/>
		</g>
		<path class="st7" d="M348.13,156.8c-3.76-0.75-12.02-3.72-12.08-3.77L325,148.82c0,0-0.39,3.75-1.48,6.11
			c-1.09,2.36-2.65,7.63,0.76,10.21c3.41,2.58,7.69,1.75,7.69,1.75c5.28,2.1-0.38,7.65-0.38,7.65c3.21,1.77,3.91-1.86,9.54,1.02
			c5.63,2.88,11.13-0.26,11.13-0.26s0.01-3.22-0.06-8.98C352.14,160.55,351.9,157.55,348.13,156.8z"/>
		<linearGradient id="SVGID_6_" gradientUnits="userSpaceOnUse" x1="322.2031" y1="162.302" x2="344.7676" y2="162.302">
			<stop  offset="2.700000e-07" style="stop-color:#FFFFFF"/>
			<stop  offset="1" style="stop-color:#005BA5"/>
		</linearGradient>
		<path class="st8" d="M335.75,164.37c-1.75-0.58-3.52-1.04-4.9-2.35c-2.15-2.04-2.67-2.13-0.65-4.32c0.63-0.68,1.31-1.17,2.14-1.56
			c0.64-0.29,1.27-0.46,1.92-0.59c0.09-0.02,0.17-0.05,0.26-0.07c0.49-0.26,0.99-0.51,1.53-0.64c0.65-0.15,1.29-0.22,1.92-0.2
			c-0.44-1.25-1.87-1.59-1.93-1.62L325,148.82c0,0-0.39,3.75-1.48,6.11c-1.09,2.36-2.65,7.63,0.76,10.21
			c3.41,2.58,7.69,1.75,7.69,1.75c5.28,2.1-0.38,7.65-0.38,7.65c3.21,1.77,3.91-1.86,9.54,1.02c0.16,0.08,0.32,0.16,0.48,0.23
			c-0.15-0.97-0.14-1.98,0.08-3.02c0.41-1.95,1.63-3.64,3.08-5C341.7,168.68,338.71,165.35,335.75,164.37z"/>
		<g>
			<g class="st9">
				<path class="st10" d="M339.83,183.23c-0.04,0.03-0.82,0.63-0.82,0.63c0.04-0.03,0.08-0.06,0.12-0.08
					c1.06-0.61,2.81,0.6,2.18,1.88c-0.02,0.03-0.04,0.06-0.06,0.09c-0.03,0.03-0.05,0.06-0.08,0.09c-0.03,0.03-0.06,0.06-0.09,0.08
					c0,0,0.82-0.64,0.87-0.71c0.1-0.13,0.21-0.34,0.21-0.57C342.22,183.69,340.95,182.63,339.83,183.23z"/>
				<g>
					<path class="st11" d="M340.79,183.94c-0.36-0.26-0.78-0.36-1.15-0.32c-0.33,0.03-0.62,0.18-0.8,0.43
						c-0.4,0.53-0.18,1.34,0.49,1.8c0.35,0.25,0.76,0.35,1.13,0.31c0.32-0.03,0.61-0.17,0.79-0.41
						C341.66,185.23,341.46,184.42,340.79,183.94z"/>
					<path class="st12" d="M340.63,184.15c-0.3-0.21-0.66-0.31-0.98-0.28c-0.26,0.03-0.48,0.14-0.61,0.32
						c-0.31,0.42-0.11,1.08,0.45,1.47c0.29,0.2,0.64,0.3,0.96,0.27h0c0.25-0.03,0.47-0.14,0.6-0.31
						C341.38,185.21,341.19,184.55,340.63,184.15z"/>
					<path class="st13" d="M340.89,185.34c-0.3,0.03-0.63-0.06-0.9-0.25c-0.44-0.31-0.64-0.8-0.51-1.19
						c-0.18,0.05-0.33,0.15-0.44,0.28c-0.31,0.42-0.11,1.08,0.45,1.47c0.29,0.2,0.64,0.3,0.96,0.27h0c0.25-0.03,0.47-0.14,0.6-0.31
						c0.08-0.11,0.13-0.23,0.15-0.36C341.11,185.3,341.01,185.33,340.89,185.34L340.89,185.34z"/>
				</g>
			</g>
			<path class="st13" d="M341,183.1c-3.73-1.82-15.28-0.63-17.05-0.09c0,0,4.6,0.33,5.15,0.79c0,0-7.35,3.83-7.5,4.06
				c-0.15,0.23,0.11,0.54,0.11,0.54s4.1-1.93,8.97-1.67l2.96-2.06c0,0,4.89-1.42,6.34-1.22C341.42,183.65,341.24,183.22,341,183.1z"
				/>
			<g class="st9">
				<path class="st10" d="M329.42,191.69c-0.04,0.03-0.81,0.62-0.81,0.62c0.04-0.03,0.08-0.06,0.12-0.08
					c1.07-0.6,3.04,0.56,2.5,1.79c-0.01,0.03-0.04,0.06-0.06,0.09c-0.02,0.03-0.05,0.06-0.08,0.09c-0.03,0.03-0.06,0.05-0.09,0.08
					c0,0,0.8-0.62,0.85-0.69c0.09-0.13,0.19-0.33,0.17-0.55C332.01,192.12,330.55,191.09,329.42,191.69z"/>
				<g>
					<path class="st11" d="M330.51,192.37c-0.41-0.25-0.86-0.35-1.25-0.3c-0.34,0.04-0.64,0.18-0.81,0.42
						c-0.37,0.52-0.05,1.3,0.71,1.74c0.4,0.23,0.84,0.33,1.23,0.29c0.33-0.04,0.62-0.17,0.8-0.41
						C331.56,193.61,331.27,192.83,330.51,192.37z"/>
					<path class="st12" d="M330.36,192.57c-0.34-0.2-0.73-0.3-1.07-0.26c-0.27,0.03-0.49,0.14-0.62,0.31
						c-0.29,0.41-0.01,1.04,0.62,1.41c0.33,0.19,0.71,0.29,1.05,0.25h0c0.27-0.03,0.48-0.13,0.61-0.3
						C331.26,193.59,330.99,192.95,330.36,192.57z"/>
					<path class="st13" d="M330.76,193.72c-0.31,0.03-0.67-0.05-0.98-0.24c-0.5-0.3-0.76-0.77-0.67-1.14
						c-0.19,0.05-0.34,0.15-0.43,0.28c-0.29,0.41-0.01,1.04,0.62,1.41c0.33,0.19,0.71,0.29,1.05,0.25h0
						c0.27-0.03,0.48-0.13,0.61-0.3c0.08-0.1,0.12-0.22,0.12-0.35C330.99,193.68,330.88,193.71,330.76,193.72L330.76,193.72z"/>
				</g>
			</g>
			<g class="st9">
				<path class="st10" d="M323.63,182.8c-0.04,0.02-0.72,0.62-0.72,0.62c0.03-0.03,0.07-0.06,0.11-0.08
					c0.96-0.6,2.85,0.59,2.42,1.83c-0.01,0.03-0.03,0.06-0.05,0.09c-0.02,0.03-0.04,0.06-0.07,0.09c-0.02,0.03-0.05,0.05-0.08,0.08
					c0,0,0.71-0.62,0.75-0.69c0.08-0.13,0.16-0.33,0.13-0.55C326.05,183.25,324.64,182.22,323.63,182.8z"/>
				<g>
					<path class="st11" d="M324.68,183.5c-0.39-0.25-0.82-0.35-1.18-0.32c-0.32,0.03-0.58,0.17-0.73,0.42
						c-0.32,0.52,0.02,1.3,0.75,1.76c0.38,0.24,0.8,0.34,1.16,0.3c0.31-0.03,0.57-0.17,0.72-0.4
						C325.72,184.75,325.4,183.96,324.68,183.5z"/>
					<path class="st12" d="M324.55,183.7c-0.32-0.21-0.69-0.31-1.01-0.27c-0.25,0.03-0.45,0.14-0.55,0.31
						c-0.25,0.41,0.05,1.05,0.65,1.43c0.32,0.2,0.68,0.29,0.99,0.26h0c0.25-0.03,0.44-0.13,0.55-0.3
						C325.44,184.72,325.16,184.08,324.55,183.7z"/>
					<path class="st13" d="M324.98,184.86c-0.29,0.03-0.63-0.06-0.93-0.25c-0.48-0.3-0.75-0.78-0.68-1.16
						c-0.17,0.05-0.31,0.14-0.39,0.28c-0.25,0.41,0.05,1.05,0.65,1.43c0.32,0.2,0.68,0.29,0.99,0.26h0c0.25-0.03,0.44-0.13,0.55-0.3
						c0.07-0.1,0.1-0.22,0.09-0.35C325.19,184.82,325.09,184.85,324.98,184.86L324.98,184.86z"/>
				</g>
			</g>
			<g class="st9">
				<path class="st10" d="M320.02,190.08c0.06,0.24,0.22,0.43,0.34,0.54c0.07,0.06,0.99,0.55,0.99,0.55
					c-0.04-0.02-0.07-0.04-0.11-0.07c-0.03-0.02-0.07-0.05-0.1-0.08c-0.03-0.03-0.06-0.05-0.08-0.08c-0.94-1.22,0.45-2.81,1.6-2.4
					c0.05,0.02,0.09,0.04,0.14,0.06c0,0-0.88-0.47-0.93-0.49C320.67,187.73,319.72,189.1,320.02,190.08z"/>
				<g>
					<path class="st11" d="M322.14,188.49c-0.36,0.04-0.73,0.24-1.01,0.58c-0.51,0.63-0.51,1.51,0,1.97
						c0.24,0.21,0.54,0.29,0.85,0.26c0.35-0.04,0.71-0.22,0.99-0.55c0.52-0.62,0.54-1.5,0.03-1.97
						C322.76,188.55,322.45,188.46,322.14,188.49z"/>
					<path class="st12" d="M322.19,188.75c-0.32,0.03-0.63,0.21-0.86,0.5c-0.43,0.53-0.45,1.25-0.05,1.61
						c0.17,0.15,0.4,0.22,0.64,0.19h0c0.31-0.03,0.62-0.21,0.84-0.48c0.43-0.52,0.47-1.25,0.07-1.61
						C322.67,188.8,322.44,188.73,322.19,188.75z"/>
					<path class="st13" d="M322.36,188.75c0.21,0.37,0.14,0.92-0.2,1.34c-0.21,0.26-0.5,0.42-0.79,0.45l0,0
						c-0.11,0.01-0.22,0-0.32-0.03c0.05,0.13,0.12,0.25,0.23,0.34c0.17,0.15,0.4,0.22,0.64,0.19h0c0.31-0.03,0.62-0.21,0.84-0.48
						c0.43-0.52,0.47-1.25,0.07-1.61C322.71,188.84,322.55,188.77,322.36,188.75z"/>
				</g>
			</g>
			<linearGradient id="SVGID_7_" gradientUnits="userSpaceOnUse" x1="331.8192" y1="183.3925" x2="331.8192" y2="188.1697">
				<stop  offset="2.700000e-07" style="stop-color:#FFFFFF"/>
				<stop  offset="1" style="stop-color:#D8DDE0"/>
			</linearGradient>
			<path class="st14" d="M335.43,183.36c-0.12-0.03-0.1-0.21,0.03-0.22c1.48-0.12,3.67-0.02,4.45-0.04
				c0.37-0.01,1.26,0.44,1.26,0.21c-0.01-0.55-0.78-0.93-1.13-0.95c-7.38-0.44-12.34-0.46-14.65-0.13c-0.7,0.1-1.44,0.79-1.44,0.79
				s8.71,0.06,4.73,0.83c-4.64,0.89-7.54,3.88-7.54,3.88l0.09,0.42l0.48,0.26l-0.09-0.42c0,0,3-1.54,4.32-2.04
				c1.33-0.5,4.98-1.32,4.45-0.45c-0.52,0.86-0.47,6.41-0.47,6.41c0.44-0.08,0.94,0.09,0.94,0.09c-0.25-1.61,0.59-3.49,1.18-5.24
				c0.07,0.01,0.14,0.02,0.23,0.03c2.12,0.18,9.9,0.59,9.88,2.6l0.25-0.15c0,0,0.29-1.07-0.11-1.47
				C341.92,187.4,338.12,184.09,335.43,183.36z"/>
			<linearGradient id="SVGID_8_" gradientUnits="userSpaceOnUse" x1="323.2622" y1="183.6968" x2="323.2622" y2="189.0268">
				<stop  offset="2.700000e-07" style="stop-color:#FFFFFF"/>
				<stop  offset="1" style="stop-color:#C4C9CE"/>
			</linearGradient>
			<path class="st15" d="M324.45,186.21c-0.43,0.04-0.77-0.06-1.04-0.24c-1.45,0.92-2.27,1.76-2.27,1.76l0.09,0.42l0.48,0.26
				l-0.09-0.42c0,0,2.31-1.19,3.77-1.81C325.07,186.17,324.76,186.18,324.45,186.21z"/>
			<linearGradient id="SVGID_9_" gradientUnits="userSpaceOnUse" x1="333.2787" y1="183.2577" x2="333.2787" y2="187.5729">
				<stop  offset="2.700000e-07" style="stop-color:#FFFFFF"/>
				<stop  offset="1" style="stop-color:#C4C9CE"/>
			</linearGradient>
			<path class="st16" d="M335.43,183.36c-0.12-0.03-0.1-0.21,0.03-0.22c1.48-0.12,3.67-0.02,4.45-0.04
				c0.37-0.01,1.26,0.44,1.26,0.21c-0.01-0.55-0.78-0.93-1.13-0.95c-7.38-0.44-12.34-0.46-14.65-0.13c-0.54,0.08-1.09,0.5-1.33,0.69
				c0.05-0.01,0.11-0.02,0.17-0.02c0.8-0.08,1.57-0.01,2.37,0.02c0.79,0.03,1.57-0.08,2.37-0.07c1.38,0.03,2.42,0.66,3.67,1.14
				c1.04,0.4,2,0.89,3.06,1.23c1.03,0.34,1.83,0.87,2.29,1.83c2.78,0.21,4.17,1.24,4.17,2.33l0.25-0.15c0,0,0.29-1.07-0.11-1.47
				C341.92,187.4,338.12,184.09,335.43,183.36z"/>
			<linearGradient id="SVGID_10_" gradientUnits="userSpaceOnUse" x1="330.8848" y1="183.2091" x2="330.8848" y2="188.0881">
				<stop  offset="2.700000e-07" style="stop-color:#FFFFFF"/>
				<stop  offset="1" style="stop-color:#C4C9CE"/>
			</linearGradient>
			<path class="st17" d="M330.77,186.83c-0.21-0.09-0.42-0.21-0.63-0.32c-0.25,1.87-0.22,5.39-0.22,5.39
				c0.44-0.08,0.94,0.09,0.94,0.09c-0.22-1.45,0.43-3.1,0.99-4.7C331.49,187.14,331.13,186.98,330.77,186.83z"/>
			<g>
				<path class="st13" d="M330.42,183.7L330.42,183.7C330.42,183.71,330.42,183.71,330.42,183.7c0,0.5,0.92,0.9,2.05,0.9
					c1.13,0,2.05-0.4,2.06-0.89c0,0,0,0,0,0l0,0l0.04-1.98h-4.18L330.42,183.7z"/>
				<path class="st10" d="M332.49,180.79c-1.16,0-2.1,0.42-2.09,0.93c0,0.51,0.94,0.92,2.08,0.92c1.15,0,2.08-0.41,2.09-0.92
					C334.59,181.21,333.65,180.79,332.49,180.79z"/>
			</g>
			<g class="st9">
				<path class="st10" d="M340.89,189.01c-0.05,0.03-0.89,0.65-0.89,0.65c0.04-0.03,0.09-0.06,0.13-0.09
					c1.15-0.63,3.02,0.56,2.28,1.9c-0.02,0.03-0.04,0.06-0.07,0.09c-0.03,0.03-0.06,0.07-0.09,0.09c-0.03,0.03-0.07,0.06-0.1,0.08
					c0,0,0.89-0.65,0.95-0.72c0.11-0.13,0.23-0.34,0.24-0.58C343.43,189.47,342.1,188.39,340.89,189.01z"/>
				<g>
					<path class="st11" d="M341.9,189.73c-0.38-0.26-0.82-0.37-1.22-0.32c-0.35,0.04-0.66,0.18-0.87,0.44
						c-0.44,0.54-0.22,1.36,0.48,1.83c0.37,0.25,0.81,0.35,1.2,0.31c0.34-0.04,0.65-0.18,0.86-0.42
						C342.79,191.04,342.59,190.22,341.9,189.73z"/>
					<path class="st12" d="M341.72,189.95c-0.31-0.21-0.69-0.32-1.04-0.28c-0.28,0.03-0.51,0.15-0.66,0.33
						c-0.34,0.43-0.14,1.1,0.44,1.49c0.31,0.21,0.68,0.3,1.02,0.27h0c0.27-0.03,0.5-0.14,0.65-0.32
						C342.49,191.01,342.3,190.35,341.72,189.95z"/>
					<path class="st13" d="M341.97,191.16c-0.32,0.03-0.67-0.06-0.96-0.25c-0.46-0.31-0.67-0.81-0.52-1.21
						c-0.2,0.05-0.36,0.15-0.47,0.29c-0.34,0.43-0.14,1.1,0.44,1.49c0.31,0.21,0.68,0.3,1.02,0.27h0c0.27-0.03,0.5-0.14,0.65-0.32
						c0.09-0.11,0.14-0.23,0.17-0.37C342.2,191.11,342.09,191.15,341.97,191.16L341.97,191.16z"/>
				</g>
			</g>
			<linearGradient id="SVGID_11_" gradientUnits="userSpaceOnUse" x1="332.5679" y1="182.1339" x2="332.5679" y2="172.7348">
				<stop  offset="2.700000e-07" style="stop-color:#FFFFFF"/>
				<stop  offset="1" style="stop-color:#D8DDE0"/>
			</linearGradient>
			<path class="st18" d="M331.27,181.47c0,0.24,0.1,0.46,0.26,0.54c0.38,0.21,1.14,0.49,1.97,0c0.15-0.09,0.25-0.3,0.26-0.54
				l0.17-12.45h-2.72L331.27,181.47z"/>
			<linearGradient id="SVGID_12_" gradientUnits="userSpaceOnUse" x1="332.5679" y1="177.3964" x2="332.5679" y2="172.2865">
				<stop  offset="2.700000e-07" style="stop-color:#FFFFFF"/>
				<stop  offset="1" style="stop-color:#C4C9CE"/>
			</linearGradient>
			<path class="st19" d="M331.23,173.76c0,0.87,0.81,3.01,2.58,4.13l0.12-8.86h-2.72L331.23,173.76z"/>
			<path class="st13" d="M341.73,187.99c-3.31-1.32-5.66-2.36-8.61-2.52c-0.24-0.01-0.49,0.08-0.6,0.28
				c-2.3,4.12-1.66,6.25-1.66,6.25l2.31-4.6c0.1-0.24,0.34-0.4,0.61-0.4c2.26,0,5.91,1.15,7.16,1.46c0.18,0.04,0.29,0.19,0.29,0.37
				l0,0.27c0.48-0.09,0.91,0.28,0.91,0.28l0-0.77C342.16,188.33,341.99,188.09,341.73,187.99z"/>
		</g>
		<g>
			<path class="st5" d="M341.06,163.7L329,163.55c-1.93-0.02-3.77,0.38-4.55,0.99l-3.42,2.68c-1.15,0.9,0.61,1.85,3.47,1.9
				l15.55,0.27c2.68,0.05,5.1-0.72,5.03-1.6l-0.22-2.79C344.83,164.27,343.21,163.73,341.06,163.7z"/>
			<path class="st20" d="M341.24,162.95l-12.12-0.15c-1.94-0.02-3.79,0.38-4.57,1l-3.44,2.7c-1.16,0.91,0.61,1.87,3.49,1.92
				l15.63,0.27c2.69,0.05,5.13-0.73,5.06-1.62l-0.21-2.82C345.03,163.53,343.41,162.98,341.24,162.95z"/>
			<path class="st11" d="M341.38,162.39l-12.17-0.15c-1.95-0.02-3.8,0.38-4.59,1.01l-3.45,2.73c-1.16,0.92,0.61,1.88,3.5,1.93
				l15.69,0.27c2.7,0.05,5.15-0.73,5.08-1.63l-0.21-2.84C345.18,162.97,343.56,162.41,341.38,162.39z"/>
			<linearGradient id="SVGID_13_" gradientUnits="userSpaceOnUse" x1="322.006" y1="165.0615" x2="344.3541" y2="165.0615">
				<stop  offset="2.700000e-07" style="stop-color:#FFFFFF"/>
				<stop  offset="1" style="stop-color:#677284"/>
			</linearGradient>
			<path class="st21" d="M340.64,162.5l-11-0.13c-1.76-0.02-3.44,0.35-4.16,0.91l-3.15,2.47c-1.06,0.83,0.54,1.71,3.17,1.76
				l14.25,0.24c2.45,0.04,4.67-0.67,4.6-1.48l-0.21-2.58C344.09,163.03,342.61,162.53,340.64,162.5z"/>
			<linearGradient id="SVGID_14_" gradientUnits="userSpaceOnUse" x1="330.5498" y1="166.0769" x2="345.4486" y2="166.0769">
				<stop  offset="2.700000e-07" style="stop-color:#FFFFFF"/>
				<stop  offset="1" style="stop-color:#677284"/>
			</linearGradient>
			<path class="st22" d="M330.55,168l9.82,0.17c2.7,0.05,5.15-0.73,5.08-1.63l-0.19-2.56C344.12,164.36,342.04,166.22,330.55,168z"
				/>
		</g>
		<path class="st7" d="M348.13,156.8c-3.76-0.75-12.02-3.72-12.08-3.77L325,148.82c0,0-0.39,3.75-1.48,6.11
			c-1.09,2.36-2.65,7.63,0.76,10.21c3.41,2.58,7,2.49,8.27,2.49c11.37,0,16.99-4.04,19.06-7.75
			C351.09,158.19,350.09,157.19,348.13,156.8z"/>
		<linearGradient id="SVGID_15_" gradientUnits="userSpaceOnUse" x1="322.2031" y1="158.2207" x2="346.1924" y2="158.2207">
			<stop  offset="2.700000e-07" style="stop-color:#FFFFFF"/>
			<stop  offset="1" style="stop-color:#005BA5"/>
		</linearGradient>
		<path class="st23" d="M335.39,163.9c-4.15-2.15-5.49-7.43-3.39-11.45c0.15-0.29,0.32-0.55,0.5-0.77l-7.5-2.86
			c0,0-0.39,3.75-1.48,6.11c-1.09,2.36-2.65,7.63,0.76,10.21c3.41,2.58,7,2.49,8.27,2.49c6.08,0,10.51-1.16,13.64-2.8
			C342.71,165.59,338.46,165.49,335.39,163.9z"/>
		<path class="st7" d="M324.45,138.83c-1.78,4.1-2.27,3.63-2.27,3.63s-0.19,0.85,1.61,1.11c1.8,0.26,0.88,1.33,2.3,1.49
			c1.42,0.16,1.01-1.14,3.3-0.24c2.29,0.9,0.35-8.99,0.35-8.99S326.23,134.73,324.45,138.83z"/>
		<linearGradient id="SVGID_16_" gradientUnits="userSpaceOnUse" x1="330.6662" y1="144.0225" x2="327.8696" y2="141.2259">
			<stop  offset="2.700000e-07" style="stop-color:#FFFFFF"/>
			<stop  offset="1" style="stop-color:#005BA5"/>
		</linearGradient>
		<path class="st24" d="M324.45,138.83c-1.78,4.1-2.27,3.63-2.27,3.63s-0.19,0.85,1.61,1.11c1.8,0.26,0.88,1.33,2.3,1.49
			c1.42,0.16,1.01-1.14,3.3-0.24c2.29,0.9,0.35-8.99,0.35-8.99S326.23,134.73,324.45,138.83z"/>
		<path class="st7" d="M332.14,135.95c-2.45-0.81-6.11-1.9-6.68,5.83c-0.57,7.73-2.23,5.72-1,9.04c1.22,3.32,9.56,3.14,12.13,3.32
			s0.57-1.09,2.88-5.19c2.31-4.1,0.83-9.65,0.83-9.65C339.04,137.02,334.58,136.76,332.14,135.95z"/>
		<path class="st2" d="M349.33,142.18c-5.16-3.92-6.89-4.05-8.71-3.59c-2.23,0.56-2.13,2.21-0.46,4.22
			c1.67,2.01,10.06,6.3,12.47,5.69C355.05,147.9,354.49,146.1,349.33,142.18z"/>
		<linearGradient id="SVGID_17_" gradientUnits="userSpaceOnUse" x1="332.3889" y1="146.5853" x2="332.3889" y2="141.2962">
			<stop  offset="2.700000e-07" style="stop-color:#FFFFFF"/>
			<stop  offset="1" style="stop-color:#005BA5"/>
		</linearGradient>
		<path class="st25" d="M332.14,135.95c-2.45-0.81-6.11-1.9-6.68,5.83c-0.57,7.73-2.23,5.72-1,9.04c1.22,3.32,9.56,3.14,12.13,3.32
			c0.78,0.05,1.14-0.03,1.33-0.28c-0.03,0-0.05,0-0.08,0c-2.37-0.17-10.06-0.19-11.14-2.57c-1.08-2.38,0.42-0.92,1.04-6.41
			c0.62-5.48,6.59,1.01,10.52,0.03c1.92-0.48,0.86-3.27,2.49-2.19c-0.07-1.97-0.46-3.42-0.46-3.42
			C339.04,137.02,334.58,136.76,332.14,135.95z"/>
		<path class="st7" d="M343.55,137.76c-3.7-2.7-5.93-1.44-6.24,0.09c-0.46,2.26,3.41,9.76,4.97,7.77c1.56-1.99,1.87-0.62,3.05-1.5
			c1.18-0.88-0.2-1.35,1.27-2.51c1.46-1.16,0.85-1.82,0.85-1.82S347.25,140.46,343.55,137.76z"/>
		<path class="st2" d="M334.91,126.99c-0.96,2.97-0.2,4.04,1.99,6.79c2.18,2.75,4.08,0.54,4.95-1.29c0.87-1.83,0.04-1.96,0.48-2.84
			c0.44-0.87,0.66-1.68,0.74-2.27C343.53,123.96,335.87,124.02,334.91,126.99z"/>
		<path class="st12" d="M341.74,124.7c-1.11-2.65-5.34-3.67-8.18-0.92c-2.85,2.75-0.69,4.13-3.47,7.2c-2.78,3.08-3.5,4.32-2.32,7.99
			c1.18,3.67,6.74,4.06,6.74,4.06c-1.18-0.88-1.54-2.36-1.54-2.36c1.41,3.14,5.46,2.88,5.46,2.88c-0.53-1.9,3.74-2.62,3.35-6.52
			c-0.39-3.9-3.24-4.81-2.19-6.9c1.05-2.09,4.26-2.99,3.83-4.39C342.99,124.34,341.74,124.7,341.74,124.7z"/>
		<g>
			<polygon class="st13" points="331.4,149.84 331.59,168.38 333.78,168.38 333.6,149.84 			"/>
			<linearGradient id="SVGID_18_" gradientUnits="userSpaceOnUse" x1="333.6246" y1="152.0496" x2="333.0938" y2="157.535">
				<stop  offset="2.700000e-07" style="stop-color:#FFFFFF"/>
				<stop  offset="1" style="stop-color:#444860"/>
			</linearGradient>
			<path class="st26" d="M332.11,149.84c0.23,0.35,0.37,0.76,0.38,1.2l0.05,11.89c0.01,0.76-0.41,1.43-1,1.87l0.08,3.58h2.17
				l-0.18-18.54H332.11z"/>
		</g>
		<g>
			<path class="st11" d="M342.79,146.44c-1.65-0.01-7.41-0.05-11.91,0.06c-5.3,0.13-7.2-2.39-7.2-2.39l-1.03,0.62l8.41,12.19
				l10.99,1.14c1.16,0.05,1.43-0.87,1.45-1.53l-0.23-9.63C343.25,146.64,343.04,146.44,342.79,146.44z"/>
			<path class="st12" d="M341.81,147.48c-1.65-0.01-7.41-0.05-11.91,0.06c-5.3,0.13-7.26-2.82-7.26-2.82s0.6,7.22,0.66,9.92
				c0.09,3.73,6.77,3.32,6.77,3.32l11.96,0.1c0.27,0,0.48-0.22,0.48-0.49l-0.23-9.63C342.27,147.69,342.07,147.48,341.81,147.48z"/>
		</g>
	</g>
	<g>
		<g>
			<ellipse class="st11" cx="252.18" cy="219.25" rx="16.11" ry="4.33"/>
		</g>
		<path class="st11" d="M236.09,219.35L236.09,219.35L236.09,219.35c0,0.58,7.2,1.06,16.09,1.06s16.09-0.47,16.09-1.06l0,0l0,0
			l3.98-18.58h-40.14L236.09,219.35z"/>
		<linearGradient id="SVGID_19_" gradientUnits="userSpaceOnUse" x1="255.1082" y1="214.2236" x2="252.8304" y2="203.973">
			<stop  offset="2.700000e-07" style="stop-color:#FFFFFF"/>
			<stop  offset="1" style="stop-color:#D8DDE0"/>
		</linearGradient>
		<path class="st27" d="M235.35,215.91c1.28-1,2.84-2.14,3.34-2.46c2.96-1.84,6.58-0.09,10.43-0.48c4.07-0.41,8.21-3.26,11.83-1.83
			c5.93,2.35,9.03-0.51,9.21-0.62l2.09-9.76h-40.14L235.35,215.91z"/>
		<g>
			<linearGradient id="SVGID_20_" gradientUnits="userSpaceOnUse" x1="269.0729" y1="200.5909" x2="245.1558" y2="200.5909">
				<stop  offset="2.700000e-07" style="stop-color:#FFFFFF"/>
				<stop  offset="1" style="stop-color:#D8DDE0"/>
			</linearGradient>
			<path class="st28" d="M232.79,203.31c0-1.21,8.68-2.2,19.39-2.2c10.71,0,19.4,0.99,19.4,2.2l3.77-5.44h-46.33L232.79,203.31z"/>
		</g>
		<g>
			<linearGradient id="SVGID_21_" gradientUnits="userSpaceOnUse" x1="269.0732" y1="203.1865" x2="245.156" y2="203.1865">
				<stop  offset="2.700000e-07" style="stop-color:#FFFFFF"/>
				<stop  offset="1" style="stop-color:#D8DDE0"/>
			</linearGradient>
			<ellipse class="st29" cx="252.18" cy="203.19" rx="19.48" ry="3.62"/>
		</g>
		<g>
			<linearGradient id="SVGID_22_" gradientUnits="userSpaceOnUse" x1="219.9106" y1="197.8716" x2="238.6875" y2="197.8716">
				<stop  offset="2.700000e-07" style="stop-color:#FFFFFF"/>
				<stop  offset="1" style="stop-color:#D8DDE0"/>
			</linearGradient>
			<path class="st30" d="M252.18,193.81c-12.79,0-23.16,1.82-23.16,4.06c0,2.24,10.37,4.06,23.16,4.06s23.16-1.82,23.16-4.06
				C275.34,195.63,264.97,193.81,252.18,193.81z"/>
		</g>
		<g>
			<path class="st13" d="M252.18,195.15c-11.22,0-20.32,1.22-20.32,2.72c0,1.5,9.1,2.72,20.32,2.72s20.32-1.22,20.32-2.72
				C272.5,196.37,263.4,195.15,252.18,195.15z"/>
		</g>
		<g>
			<g>
				<path class="st5" d="M260.69,161.1c-1.87,3.6-6.1,36.47-6.1,36.47l1.59,0.78c1.72-22.8,2.81-28.77,4.8-37.01
					C261.01,161.21,262.56,157.5,260.69,161.1z"/>
			</g>
			<g>
				<path class="st31" d="M263.69,106.92c-11.33,28.23-2.99,54.54-2.99,54.54c12.8-5.11,13.94-20.51,13.94-20.51
					c-14.13,7.98,0.69-5.1,0.69-5.1C281.27,114.6,263.69,106.92,263.69,106.92z"/>
			</g>
			<g>
				<path class="st5" d="M254.98,139.02c0,0,13.56,13.21,0.04,4.24c0,0-1.48,13.9,5.68,18.21c0,0,11.83-25.93,2.56-54.9
					C263.26,106.56,250.58,117.4,254.98,139.02z"/>
			</g>
		</g>
		<g>
			<path class="st5" d="M273.65,154.03c0,0-2.18,2.77,1.91,6.08c4.09,3.32-4.21,1.95-4.71-3.98c-0.5-5.93-8.07,1.99-3.85,10.32
				c3.9,7.7-8.62,16.58-13.73,32.75c0.7-0.27,1.42-0.48,2.15-0.66c2.8-7.37,8.35-20.33,15.92-30.04
				c11.19-14.36,31.36-14.04,31.36-14.04S285.26,147.05,273.65,154.03z"/>
		</g>
		<g>
			<path class="st5" d="M253.45,189.39c0.36,1.63,1.89,5.91,3,8.93c0.31-0.06,0.63-0.09,0.95-0.14c-0.92-2.55-2.15-4.88-2.71-6.9
				c-4.65-16.6,2.59-22.91,4.73-35.3C231.16,184.95,252.87,186.76,253.45,189.39z"/>
		</g>
		<g>
			<g>
				<path class="st31" d="M278.38,163.76c-1.08,3.61,1.34,7.58-1.23,7.96c-2.57,0.38,2.13-7.36-1.11-6.85
					c-3.24,0.51-5.72,4.63-5.72,4.63c0.16,13.6-1.51,1.6-1.51,1.6c-5.27,9.81-1.27,14.75-1.27,14.75
					c-5.71,3.18-9.97,8.66-12.6,12.82c0.43-0.12,0.86-0.22,1.29-0.31c2.89-4.78,8.06-11.06,16.51-14.54
					c14.91-6.14,20.9-19.89,20.9-19.89S279.46,160.15,278.38,163.76z"/>
			</g>
			<g>
				<path class="st5" d="M277.83,172.88c-10.17,2.31-10.31,12.97-10.31,12.97c-6,3.53-10.17,8.83-12.69,12.84
					c0.45-0.13,0.91-0.24,1.38-0.33c2.89-4.78,8.06-11.06,16.51-14.54c14.91-6.14,20.9-19.89,20.9-19.89S288,170.57,277.83,172.88z"
					/>
			</g>
		</g>
		<g>
			<g>
				<path class="st31" d="M242.68,135.47c0,0-11.28,19.19-2.55-3.18c0,0-5.18-4.09-7.03-6.62c0,0,0.03,3.02-2.38,5.96
					c0,0,1.36-10.78-12.15-8.94c0,0-6.46,9.79,5.35,17.74c0,0,6.22,3.52,8.38,5.95c0,0-5.76-3.14-9.82-1.2c0,0,1.72,8.65,5.66,9.46
					c3.94,0.81,4.35,1.24,4.35,1.24s0.52,2.05,3.14,1.78c2.62-0.26,2.69,1.75,2.69,1.75s-4.43-1.91-7.85-0.66
					c0,0-0.14,5.31,6.05,6.48c6.19,1.17,9.96-4.31,10.87,5.78c0.74,8.11,6.48,22.18,8.71,27.38c0.73-0.15,1.48-0.25,2.23-0.31
					c-2.26-3.7-8.75-15.06-10.4-26.23C245.92,158.26,254.86,152.04,242.68,135.47z"/>
			</g>
			<g>
				<path class="st5" d="M248,162.56c0.87-6.38,2.66-11.8-0.91-19.73c0,0,0,0,0-0.01c-1-2.23-2.43-4.65-4.41-7.35
					c0,0-11.28,19.19-2.55-3.18c0,0-5.18-4.08-7.03-6.61c0,0,0.03,3.02-2.38,5.95c0,0,1.36-10.78-12.15-8.94
					c0,0-1.04,8.25,10.77,16.2c0,0,17.9,21.58,14.47,22.83c0,0-13.49,2.34-7.3,3.51c6.19,1.17,9.96-4.31,10.87,5.78
					c0.74,8.1,6.48,22.17,8.71,27.38c0.73-0.15,1.48-0.25,2.23-0.31c-2.26-3.7-8.74-15.06-10.39-26.22
					C247.42,168.37,247.62,165.37,248,162.56z"/>
			</g>
			<g>
				<path class="st31" d="M245.32,154.65c-0.41,4.79,2.69,7.9,2.69,7.9c0.87-6.38,2.66-11.8-0.91-19.73
					C248.55,149.86,245.73,149.86,245.32,154.65z"/>
			</g>
		</g>
		<g>
			<g>
				<path class="st31" d="M241.11,181.61c0,0,4.9-4.05,1.68-14.71c0,0-4.03,11.43-1.17-1.87c0,0-1.61-4.53-4.69-5.67
					c-3.08-1.14-0.01,7.38-2.45,6.49c-2.44-0.88,0.72-4.29,0.37-8.04c-0.34-3.75-14.98-2.87-14.98-2.87s3.14,14.67,16.53,23.65
					c9.92,6.65,13.4,16.87,14.54,21.72c0.34-0.19,0.68-0.37,1.03-0.53C250.59,195.31,247.32,186.92,241.11,181.61z"/>
			</g>
			<g>
				<path class="st5" d="M241.11,181.61c0,0,1.98-10.48-7.53-14.76c-9.5-4.28-13.7-11.91-13.7-11.91s3.14,14.67,16.53,23.65
					c9.92,6.65,13.4,16.87,14.54,21.72c0.35-0.2,0.71-0.38,1.08-0.55C250.72,195.44,247.61,187.45,241.11,181.61z"/>
			</g>
		</g>
		<g>
			<path class="st5" d="M236.49,185.01c1.08-4.32-4.97-6.89-4.21-4.15c0.76,2.75-4.07,4.46-2.16,2.42c1.91-2.04,0.07-3,0.07-3
				c-8.36-1.61-17.7,4.06-17.7,4.06s12.28-2.82,21.71,2.18c7.1,3.76,13.4,9.68,16.08,12.37c0.31-0.14,0.63-0.27,0.96-0.39
				C245.22,191.47,235.46,189.11,236.49,185.01z"/>
		</g>
	</g>
	<linearGradient id="SVGID_23_" gradientUnits="userSpaceOnUse" x1="446.3151" y1="91.7975" x2="339.893" y2="152.4917">
		<stop  offset="2.700000e-07" style="stop-color:#FFFFFF"/>
		<stop  offset="0.9185" style="stop-color:#C4C9CE"/>
	</linearGradient>
	<polygon class="st32" points="344.41,198.98 461.61,216.75 461.61,0.31 344.41,16.24 	"/>
	<linearGradient id="SVGID_24_" gradientUnits="userSpaceOnUse" x1="97.3311" y1="120.5996" x2="259.4768" y2="120.5996">
		<stop  offset="2.700000e-07" style="stop-color:#FFFFFF"/>
		<stop  offset="1" style="stop-color:#C4C9CE"/>
	</linearGradient>
	<rect x="91.47" y="0.31" class="st33" width="143.6" height="240.59"/>
	<g>
		<polygon class="st11" points="153.51,118.26 202.54,117.13 202.54,45.36 153.51,43.65 		"/>
		<polygon class="st34" points="158.94,112.7 197.11,111.82 197.11,50.61 158.94,49.27 		"/>
	</g>
	<g>
		<polygon class="st11" points="383.64,76.9 405.15,77.39 405.15,44.65 383.64,46.5 		"/>
		<polygon class="st34" points="385.95,74.64 402.69,74.96 402.69,47.24 385.95,48.61 		"/>
	</g>
	<g>
		<polygon class="st11" points="411.73,98.78 438.59,99.38 438.59,58.49 411.73,59.84 		"/>
		<polygon class="st34" points="414.61,95.96 435.52,96.35 435.52,61.72 414.61,62.48 		"/>
	</g>
	<g>
		<g>
			<path class="st13" d="M429.14,136.46c-6.69-12.14-15.72-6.89-18.17-3.79c-22.32,28.23-52.62,31.86-57.15,50.27
				c-2.45,9.96,2.28,35.75,43.3,39.23c42.62,3.61,55.15-26.33,47.09-46.71C436.17,155.08,435.83,148.61,429.14,136.46z"/>
		</g>
		<g>
			<linearGradient id="SVGID_25_" gradientUnits="userSpaceOnUse" x1="353.3034" y1="200.3935" x2="446.5165" y2="200.3935">
				<stop  offset="2.700000e-07" style="stop-color:#FFFFFF"/>
				<stop  offset="1" style="stop-color:#C4C9CE"/>
			</linearGradient>
			<path class="st35" d="M406.04,212.54c-44.07,3.81-52.11-19.06-52.45-28.44c-1.82,10.66,4,34.73,43.54,38.09
				c40.68,3.45,53.94-23.67,48.05-43.87C442.62,208.72,410.65,212.14,406.04,212.54z"/>
		</g>
		<g>
			<linearGradient id="SVGID_26_" gradientUnits="userSpaceOnUse" x1="362.7755" y1="166.2593" x2="433.6494" y2="166.2593">
				<stop  offset="2.700000e-07" style="stop-color:#FFFFFF"/>
				<stop  offset="1" style="stop-color:#C4C9CE"/>
			</linearGradient>
			<path class="st36" d="M423.7,157.55c-0.34-18.13-9.88-16.59-24.35-5.17c-14.47,11.42-19.04,17.25-27.92,17.04
				c-8.88-0.21-9.5,6.09-8.04,7.82c8.05,9.49,31.79,12.78,47.53,10.98c8.13-0.93,16.73-11.52,22.74-10.26
				C433.65,177.95,423.97,172.22,423.7,157.55z"/>
		</g>
		<g>
			<path class="st37" d="M436.26,158.34c-1.54-5.07-3.37-10.07-5.59-14.9l-0.84-1.8l-0.91-1.77c-0.29-0.6-0.63-1.17-0.95-1.75
				c-0.32-0.58-0.65-1.16-1-1.73c-0.34-0.57-0.69-1.14-1.07-1.69c-0.36-0.56-0.76-1.09-1.15-1.63c-0.81-1.05-1.64-2.1-2.69-2.95
				l-0.08,0.1c1.83,1.88,3.15,4.2,4.42,6.49c1.25,2.31,2.37,4.69,3.39,7.12c2.07,4.84,3.82,9.82,5.47,14.82l2.57,7.51
				c0.87,2.5,1.73,5,2.5,7.52c0.76,2.53,1.44,5.08,1.92,7.67c0.5,2.58,0.76,5.22,0.7,7.83c-0.09,2.61-0.54,5.2-1.42,7.63
				c-0.88,2.44-2.16,4.71-3.69,6.8c-1.54,2.09-3.33,4-5.25,5.77c-0.97,0.87-1.94,1.75-2.96,2.57c-1,0.87-2.01,1.58-3.13,2.24
				c-2.21,1.32-4.65,2.29-7.12,3.12c-2.48,0.83-5.03,1.45-7.61,1.91c-5.16,0.94-10.45,1.26-15.72,0.96l-0.01,0.12
				c5.25,0.71,10.62,0.64,15.9-0.12c5.26-0.81,10.51-2.17,15.25-4.85c1.16-0.67,2.32-1.5,3.31-2.37c1.04-0.84,2.03-1.74,3-2.65
				c1.94-1.84,3.75-3.83,5.31-6.03c1.56-2.19,2.83-4.61,3.68-7.17c0.86-2.56,1.16-5.28,1.16-7.95c-0.1-5.37-1.47-10.54-2.9-15.62
				C439.28,168.48,437.76,163.41,436.26,158.34z"/>
		</g>
		<g>
			<path class="st37" d="M395,197.62c0.07-0.1,0.14-0.19,0.21-0.29c-0.01-0.11-0.03-0.23-0.04-0.33L395,197.62z"/>
			<path class="st37" d="M418.8,152.87c-0.79,6.16-0.76,12.38-1.15,18.55c-0.11,1.54-0.24,3.08-0.46,4.61l-0.17,1.14
				c-0.07,0.38-0.15,0.75-0.22,1.12c-0.06,0.39-0.21,0.7-0.31,1.05c-0.13,0.32-0.32,0.59-0.59,0.84c-1.06,0.99-2.47,1.67-3.83,2.38
				c-1.38,0.69-2.78,1.35-4.17,2.05c-2.76,1.43-5.5,3.02-7.99,4.99c-2.49,1.95-4.79,4.23-6.58,6.91l-0.02,0.02
				c-0.12,0.18-0.17,0.39-0.15,0.59c0.1,1.3,0.37,2.42,0.7,3.58c0.35,1.14,0.75,2.26,1.25,3.33c1,2.14,2.25,4.18,3.79,5.96
				c0.36,0.46,0.79,0.87,1.19,1.3l0.61,0.64c0.21,0.2,0.44,0.39,0.66,0.58l1.32,1.15l1.41,1.03c0.91,0.73,1.96,1.24,2.95,1.84
				c1.02,0.55,2.08,1,3.12,1.48l0.08-0.17c-0.95-0.64-1.94-1.2-2.87-1.85l-1.36-1.02c-0.23-0.17-0.46-0.33-0.68-0.5l-0.64-0.56
				l-1.27-1.11l-1.17-1.21c-0.19-0.2-0.39-0.4-0.58-0.61l-0.53-0.65c-0.35-0.44-0.73-0.84-1.05-1.3c-1.33-1.78-2.42-3.72-3.27-5.76
				c-0.44-1.01-0.78-2.06-1.08-3.11c-0.12-0.53-0.27-1.06-0.35-1.6c-0.09-0.41-0.15-0.83-0.19-1.23c-0.07,0.1-0.14,0.19-0.21,0.29
				l0.17-0.61c0.01,0.1,0.03,0.22,0.04,0.33c1.63-2.35,3.6-4.48,5.83-6.33c2.33-1.93,4.89-3.6,7.53-5.16l3.99-2.37
				c0.67-0.4,1.34-0.81,1.99-1.25c0.65-0.45,1.3-0.92,1.86-1.54c0.28-0.3,0.54-0.68,0.69-1.08c0.1-0.39,0.26-0.79,0.3-1.18l0.2-1.16
				l0.15-1.16l0.53-4.62c0.72-6.16,1.65-12.29,2.15-18.44c0.57-6.15,1.2-12.27,2.03-18.42l-0.18-0.04
				C420.47,140.54,419.5,146.71,418.8,152.87z"/>
		</g>
		<g>
			<path class="st37" d="M408.86,141.43c-0.71,1.41-1.45,2.79-2.28,4.13c-1.65,2.68-3.52,5.21-5.5,7.66
				c-2.01,2.42-4.09,4.79-6.23,7.12c-2.14,2.33-4.37,4.59-6.74,6.69c-1.19,1.05-2.43,2.04-3.7,2.98c-1.29,0.9-2.61,1.83-4.02,2.42
				c-0.7,0.27-1.49,0.44-2.26,0.64c-0.77,0.2-1.55,0.41-2.32,0.65c-1.54,0.49-3.07,1.11-4.5,1.91c-2.87,1.61-5.34,3.92-7.26,6.58
				c-1.94,2.66-3.41,5.61-4.53,8.66l-0.01,0.02c-0.04,0.11-0.06,0.22-0.05,0.32c0.02,1.36,0.18,2.6,0.42,3.87
				c0.24,1.26,0.55,2.5,0.94,3.71c0.79,2.42,1.89,4.75,3.3,6.87c1.4,2.13,3.15,4.01,5.09,5.62c0.99,0.79,2,1.53,3.1,2.15
				c1.07,0.65,2.2,1.19,3.35,1.67l0.08-0.17c-1.06-0.64-2.1-1.29-3.08-2.03c-0.5-0.36-0.97-0.75-1.43-1.15
				c-0.48-0.38-0.91-0.81-1.36-1.21c-0.86-0.85-1.68-1.75-2.42-2.7c-0.73-0.96-1.42-1.95-2.02-2.99c-1.2-2.08-2.16-4.3-2.81-6.61
				c-0.34-1.15-0.61-2.32-0.8-3.5c-0.1-0.59-0.18-1.18-0.24-1.77c-0.06-0.52-0.1-1.08-0.11-1.57c-0.02,0.06-0.05,0.11-0.07,0.17
				l0.06-0.34c0,0.05,0.01,0.11,0.01,0.16c1.08-2.85,2.32-5.64,4.04-8.13c1.74-2.54,3.9-4.78,6.49-6.47
				c1.28-0.86,2.67-1.57,4.12-2.15c1.46-0.6,2.97-0.99,4.51-1.59c0.77-0.34,1.45-0.77,2.12-1.21c0.68-0.44,1.33-0.9,1.98-1.37
				c1.3-0.93,2.56-1.91,3.82-2.9c5.03-3.93,9.88-8.21,13.8-13.33c0.99-1.27,1.95-2.56,2.82-3.92c0.9-1.34,1.71-2.73,2.46-4.16
				c0.75-1.42,1.4-2.91,1.96-4.42c0.51-1.53,0.96-3.08,1.2-4.67l-0.18-0.04C410.12,138.54,409.55,140.01,408.86,141.43z"/>
			<path class="st37" d="M361.42,191.56c0.02-0.06,0.05-0.12,0.07-0.17c0-0.05-0.01-0.11-0.01-0.16L361.42,191.56z"/>
		</g>
		<g>
			<path class="st37" d="M360.36,190.28l0.22,1.87c9.07-1.08,33.08,5.75,33.33,5.82l0.52-1.81
				C393.43,195.87,369.81,189.16,360.36,190.28z"/>
		</g>
	</g>
	<g>
		<g>
			<polygon class="st13" points="132.23,189.94 141.22,268.2 148.13,265.32 139.42,189.11 			"/>
			<linearGradient id="SVGID_27_" gradientUnits="userSpaceOnUse" x1="142.9977" y1="210.7633" x2="141.2366" y2="228.9611">
				<stop  offset="2.700000e-07" style="stop-color:#FFFFFF"/>
				<stop  offset="1" style="stop-color:#444860"/>
			</linearGradient>
			<path class="st38" d="M133.59,200.32l0.13,1.09c2.19,1.18,3.78,3.52,4.07,6.03l4.28,39.32c0.29,2.5-0.85,4.72-2.65,6.19
				l1.99,15.75l6.73-3.38l-8.71-76.21L133.59,200.32z"/>
			<path class="st11" d="M173.05,163.4c0,0-24.58,2.99-32.87,4.39c-5.19,0.88-19.27,4.22-18.41,11.59
				c0.86,7.37,3.76,28.82,3.76,28.82s3.98-8.79,18.08-10.54c12.25-1.52,28.29-4.01,32.96-4.75c0.73-0.11,1.24-0.79,5.01-0.04
				l-2.6-26.16C178.68,164.15,175.96,163.06,173.05,163.4z"/>
			<path class="st12" d="M177.59,165.94l-32.53,4.85c0,0-18.35,1.45-17.16,11.65c0.86,7.37,2,27.26,2,27.26s4.2-8.77,18.69-10.46
				c12.29-1.43,27.96-3.73,32.45-4.4c0.7-0.1,1.18-0.74,1.1-1.44l-3.06-26.32C178.99,166.35,178.32,165.83,177.59,165.94z"/>
			<linearGradient id="SVGID_28_" gradientUnits="userSpaceOnUse" x1="125.2214" y1="214.5111" x2="127.3433" y2="187.3988">
				<stop  offset="2.700000e-07" style="stop-color:#FFFFFF"/>
				<stop  offset="1" style="stop-color:#D8DDE0"/>
			</linearGradient>
			<path class="st39" d="M126.12,180.87l-3.16,1.21c-0.49,0.19-0.8,0.69-0.74,1.21l3.32,28.55c0.09,0.77,0.89,1.23,1.6,0.93
				l3.15-1.34c0.47-0.2,0.76-0.69,0.7-1.2l-3.31-28.42C127.6,181.07,126.83,180.6,126.12,180.87z"/>
		</g>
		<g>
			<path class="st5" d="M209.42,251.2c-2.28-2.74-8.07-4.48-14.33-4.31l-39.15,1.08c-7,0.19-12.7,2.71-13.52,5.98l-3.28,13.06
				c-1.06,4.23,6.37,7.87,15.44,7.56l52.67-1.82c9.71-0.34,15.96-4.98,12.42-9.23L209.42,251.2z"/>
			<path class="st20" d="M209.42,247.86c-2.28-2.74-8.07-4.48-14.33-4.31l-39.15,1.08c-7,0.19-12.7,2.71-13.52,5.98l-3.28,13.06
				c-1.06,4.23,6.37,7.87,15.44,7.56l52.67-1.82c9.71-0.34,15.96-4.98,12.42-9.23L209.42,247.86z"/>
			<path class="st11" d="M209.42,245.36c-2.28-2.74-8.07-4.48-14.33-4.31l-39.15,1.08c-7,0.19-12.7,2.71-13.52,5.98l-3.28,13.06
				c-1.06,4.23,6.37,7.87,15.44,7.56l52.67-1.82c9.71-0.33,15.96-4.98,12.42-9.23L209.42,245.36z"/>
			<linearGradient id="SVGID_29_" gradientUnits="userSpaceOnUse" x1="142.9062" y1="254.1741" x2="216.8014" y2="254.1741">
				<stop  offset="2.700000e-07" style="stop-color:#FFFFFF"/>
				<stop  offset="1" style="stop-color:#677284"/>
			</linearGradient>
			<path class="st40" d="M206.62,245.54c-2.06-2.48-7.3-4.06-12.97-3.9l-35.44,0.98c-6.34,0.17-11.5,2.46-12.24,5.41L143,259.85
				c-0.96,3.83,5.76,7.13,13.97,6.84l47.68-1.65c8.79-0.3,14.45-4.51,11.24-8.36L206.62,245.54z"/>
			<linearGradient id="SVGID_30_" gradientUnits="userSpaceOnUse" x1="139.0366" y1="259.0622" x2="187.5313" y2="259.0622">
				<stop  offset="2.700000e-07" style="stop-color:#FFFFFF"/>
				<stop  offset="1" style="stop-color:#677284"/>
			</linearGradient>
			<path class="st41" d="M139.14,261.17c-1.06,4.23,6.37,7.87,15.44,7.56l32.96-1.14c-36.88-8.03-42.09-16.54-45.43-18.21
				L139.14,261.17z"/>
		</g>
	</g>
	<g>
		<g>
			<g>
				<path class="st7" d="M395.73,162c-5.6-1.52-19.59,3.88-27.91,6.89c-10.45,3.78-16.68,9.75-7.15,15.1
					c4.44,2.49,20.8-2.48,30.87-0.06c10.07,2.41,13.64-1.95,14.87-5.1C409.41,171.12,401.32,163.53,395.73,162z"/>
			</g>
		</g>
		<g>
			<g>
				<path class="st7" d="M356.24,179.8c0,0,6.12,16.28,14.83,36.12c0,0,5.82,0.88,9.99-2.31c0,0-4.29-32.5-8.97-38.83
					C369.62,171.43,356.24,179.8,356.24,179.8z"/>
			</g>
		</g>
		<g>
			<g>
				<linearGradient id="SVGID_31_" gradientUnits="userSpaceOnUse" x1="364.1192" y1="196.5067" x2="373.1387" y2="194.0745">
					<stop  offset="2.700000e-07" style="stop-color:#FFFFFF"/>
					<stop  offset="1" style="stop-color:#005BA5"/>
				</linearGradient>
				<path class="st42" d="M361.6,178.59c-1.64,5.68,3.75,24.3,9.46,37.32c0,0,5.82,0.88,9.99-2.31c0,0-4.29-32.5-8.97-38.83
					C370.52,172.64,363.61,171.63,361.6,178.59z"/>
			</g>
		</g>
		<g>
			<g>
				<path class="st10" d="M380.56,204.99c0,0-7.66,5.3-12.16,5.29c0,0,4.28,9.59,2.28,11.86c-2,2.27-5.08,3.88-8.53,4.11
					c-3.45,0.23-3.2,3.02-2.56,3.37c0.64,0.34,7.99,2.74,11.22,1.57c3.23-1.17,3.76-1.3,4.78-0.97c1.02,0.33,5.22,0.93,6.71-0.77
					c1.5-1.7,0.22-4.37-0.53-5.52C381.22,223.06,382.41,215.1,380.56,204.99z"/>
			</g>
		</g>
		<g>
			<g>
				<linearGradient id="SVGID_32_" gradientUnits="userSpaceOnUse" x1="359.2559" y1="229.4127" x2="383.0192" y2="229.4127">
					<stop  offset="2.700000e-07" style="stop-color:#FFFFFF"/>
					<stop  offset="1" style="stop-color:#444860"/>
				</linearGradient>
				<path class="st43" d="M376.01,228.37c-1.1-0.27-1.67-0.1-5.13,1.31c-3.08,1.26-9.73-0.12-11.62-0.65
					c0.06,0.29,0.19,0.5,0.34,0.58c0.64,0.35,8,2.74,11.22,1.57c3.23-1.17,3.76-1.3,4.78-0.97c1.02,0.34,5.21,0.93,6.71-0.77
					c0.54-0.62,0.73-1.36,0.71-2.12C381.27,228.91,377.07,228.63,376.01,228.37z"/>
			</g>
		</g>
		<g>
			<g>
				<path class="st7" d="M352.2,213.36c0,0,3.49,4.43,8.74,4.74c0,0,9.08-15.57,12.4-26.45c1.85-6.06,3.43-9.12,3.43-9.12
					l-13.1-5.26C363.67,177.28,355.96,205.19,352.2,213.36z"/>
			</g>
		</g>
		<g>
			<g>
				<linearGradient id="SVGID_33_" gradientUnits="userSpaceOnUse" x1="357.2052" y1="203.2846" x2="390.9168" y2="181.4713">
					<stop  offset="2.700000e-07" style="stop-color:#FFFFFF"/>
					<stop  offset="1" style="stop-color:#005BA5"/>
				</linearGradient>
				<path class="st44" d="M367.28,183.53c-3.08,5.4-3.35,12.73-6.2,18.57c-1.55,3.18-3.54,5.85-5.87,8.5
					c-0.91,1.03-1.83,2.05-2.7,3.12c0.96,1.06,4.09,4.12,8.43,4.39c0,0,9.08-15.57,12.4-26.45c1.85-6.06,3.43-9.12,3.43-9.12
					l-8.72-3.5C368.37,180.51,368.08,182.12,367.28,183.53z"/>
			</g>
		</g>
		<g>
			<g>
				<path class="st7" d="M408.43,163.63c-5.68-1.18-28.49,2.74-36.61,6.25c-10.21,4.41-10.93,10.27-1.8,13.89
					c4.74,1.87,18.13,1.73,29.89,2.46c12.3,0.77,15.52-3.97,16.56-7.19C419,171.15,414.11,164.81,408.43,163.63z"/>
			</g>
		</g>
		<g>
			<g>
				<linearGradient id="SVGID_34_" gradientUnits="userSpaceOnUse" x1="356.7231" y1="202.6917" x2="390.4761" y2="180.8515">
					<stop  offset="2.700000e-07" style="stop-color:#FFFFFF"/>
					<stop  offset="1" style="stop-color:#005BA5"/>
				</linearGradient>
				<path class="st45" d="M408.43,163.63c-3.39-0.71-12.86,0.41-21.68,2.16c0.1,0.15,11.97,8.96-1.32,8.96
					c-8.31,0-15.76,2.52-17.74,7.93c0.66,0.36,1.51,0.76,2.33,1.08c4.74,1.87,18.13,1.73,29.89,2.46
					c12.3,0.77,15.52-3.97,16.56-7.19C419,171.15,414.11,164.81,408.43,163.63z"/>
			</g>
		</g>
		<g>
			<g>
				<path class="st10" d="M354.82,205.84c0,0-4.74,14-7.6,14.98c-2.86,0.98-7.16,1.11-10.27-0.4c-3.11-1.51-4.28,1.05-3.89,1.66
					c0.38,0.62,5.59,6.33,8.98,6.91c3.39,0.57,3.92,0.72,4.64,1.52c0.72,0.8,4.08,3.38,6.22,2.65c2.14-0.74,2.4-3.69,2.27-5.06
					c-0.13-1.37,10.23-16.06,10.23-16.06S362.44,207.98,354.82,205.84z"/>
			</g>
		</g>
		<g>
			<g>
				<linearGradient id="SVGID_35_" gradientUnits="userSpaceOnUse" x1="332.9881" y1="227.3507" x2="354.5537" y2="227.3507">
					<stop  offset="2.700000e-07" style="stop-color:#FFFFFF"/>
					<stop  offset="1" style="stop-color:#444860"/>
				</linearGradient>
				<path class="st46" d="M347.95,229.11c-0.83-0.78-1.4-0.91-5.11-1.4c-3.31-0.42-8.4-4.91-9.79-6.3
					c-0.09,0.28-0.08,0.53,0.01,0.67c0.38,0.62,5.6,6.33,8.98,6.91c3.39,0.57,3.91,0.73,4.64,1.52c0.72,0.8,4.08,3.38,6.22,2.64
					c0.78-0.27,1.31-0.83,1.66-1.49C352.25,232.18,348.74,229.86,347.95,229.11z"/>
			</g>
		</g>
		<g>
			<g>
				<g>
					<path class="st2" d="M414.74,151.88c2.3,4.84,5.13,10.32,9.21,8.76c4.08-1.56,1.07-9.32,0.19-11.85
						C421.79,142.07,412.43,147.04,414.74,151.88z"/>
				</g>
			</g>
			<g>
				<g>
					<linearGradient id="SVGID_36_" gradientUnits="userSpaceOnUse" x1="420.3718" y1="152.576" x2="421.0028" y2="153.7028">
						<stop  offset="2.700000e-07" style="stop-color:#FFFFFF"/>
						<stop  offset="1" style="stop-color:#D36649"/>
					</linearGradient>
					<path class="st47" d="M422.66,156.46c-0.79-1.03-1.62-2.18-2-3.44c-0.2-0.69-0.18-1.39-0.21-2.1
						c-0.02-0.69-0.17-1.39-0.22-2.09c-0.08-1.22,0.88-2.28,2-2.63c-3.5-2.3-9.39,1.73-7.51,5.69c2.3,4.84,5.13,10.32,9.21,8.76
						c0.7-0.27,1.19-0.72,1.52-1.3C424.43,158.52,423.49,157.55,422.66,156.46z"/>
				</g>
			</g>
			<g>
				<g>
					<g>
						<path class="st2" d="M380.13,138.95c0,0-6.62,4.73-8.84,13.48c-4.72,2.84-6.57,7.58-9.67,9.72c0,0-6.45,1.1-7.61,1.76
							c-1.15,0.66-1.93,4.09-1.23,5.23c0.27,0.44,1.39,0.67,2.08,0.12c0,0,0.09,1.7,2.29,1.12c0,0,0.25,1.39,1.83,1.07
							c0,0,1.87,0.82,3.01-0.04c1.13-0.86,2.61-4.58,5.14-5.9c2.53-1.31,7.54-3.2,9.6-5.5c2.06-2.3,2.4-3.54,3.38-5.15
							c1.51-2.46,3.01-3.58,6.09-10.44C389.29,137.58,380.13,138.95,380.13,138.95z"/>
					</g>
				</g>
				<g>
					<g>
						<linearGradient id="SVGID_37_" gradientUnits="userSpaceOnUse" x1="353.9431" y1="172.1831" x2="370.8892" y2="156.4389">
							<stop  offset="2.700000e-07" style="stop-color:#FFFFFF"/>
							<stop  offset="1" style="stop-color:#D36649"/>
						</linearGradient>
						<path class="st48" d="M380.13,138.95c0,0-4.26,3.05-7.09,8.77c0.98,0.1,1.95,0.45,2.74,1.04c2.31,1.71,2.41,5.02,0.82,7.21
							c-1.35,1.87-2.93,2.71-5.09,4.32c-3.09,2.3-5.5,4.1-5.8,4.9c-0.46,1.21-2.87,2.77-4.06,3.23c-1.19,0.46-1.5-0.01-2.67-0.53
							c-1.32-0.58-2.64-1.28-3.76-2.19c-0.6-0.48-1.05-1.06-1.36-1.69c-1.07,0.86-1.75,4.03-1.08,5.12
							c0.27,0.44,1.39,0.67,2.08,0.12c0,0,0.09,1.7,2.29,1.12c0,0,0.25,1.39,1.83,1.07c0,0,1.87,0.82,3.01-0.04
							c1.13-0.86,2.61-4.58,5.14-5.9c2.53-1.31,7.54-3.2,9.6-5.5c2.06-2.3,2.4-3.54,3.38-5.15c1.51-2.46,3.01-3.58,6.09-10.44
							C389.29,137.58,380.13,138.95,380.13,138.95z"/>
					</g>
				</g>
			</g>
			<g>
				<g>
					<g>
						<path class="st34" d="M385.81,148.25c0,0-0.16,0.21-0.34,0.6L385.81,148.25z"/>
						<path class="st34" d="M420.66,138.45c-1.05-3.54-0.51-7.02-9.75-11.09c-9.24-4.08-6.4-1.36-12.32-3.23
							c-5.92-1.87-9.76,4.95-14.52,5.24c-4.82,0.3-11.57,19.11-11.57,19.11s5.6,2.51,11.1,3.6l1.86-3.23
							c0.19-0.38-0.86,2.22-0.44,4.06c0.63,2.77-0.79,4.18,0.16,5.92c0.95,1.74,0.81,2.58-0.33,4.2c0,0,5.89,0.63,8.26,4.96
							c2.37,4.33,10.73,1.9,17.65,3.52c6.92,1.61,7.46,6.24,6.71-3.79c-0.42-5.64,1.4-5.64-1.17-12.52c0,0,8.82-3.39,8.17-7.37
							C424.48,147.82,421.53,141.36,420.66,138.45z"/>
					</g>
				</g>
				<g>
					<g>
						<linearGradient id="SVGID_38_" gradientUnits="userSpaceOnUse" x1="385.2442" y1="148.8135" x2="385.8106" y2="148.8135">
							<stop  offset="2.700000e-07" style="stop-color:#FFFFFF"/>
							<stop  offset="1" style="stop-color:#C4C9CE"/>
						</linearGradient>
						<path class="st49" d="M385.81,148.25c0,0-0.3,0.41-0.57,1.12L385.81,148.25z"/>
						<linearGradient id="SVGID_39_" gradientUnits="userSpaceOnUse" x1="372.5098" y1="152.1654" x2="419.9033" y2="152.1654">
							<stop  offset="2.700000e-07" style="stop-color:#FFFFFF"/>
							<stop  offset="1" style="stop-color:#C4C9CE"/>
						</linearGradient>
						<path class="st50" d="M415.17,143.28c-0.72-2.98,0.69-6.19-4.3-4.98c-1.44,0.35-14.13,0.27-18.24-0.94
							c-2.94-0.87-2.5-6.51-5.44-7.41c-1.72-0.53-4.5,4.1-6.28,4.46c-1.62,0.33,0.54,7.54-2.62,7.53c-1.77,0,0.67,1.82,0.93,3.58
							c0.78,5.45-6.71,2.96-6.71,2.96s5.83,2.6,11.33,3.69l1.41-2.8c0.26-0.71-0.55,2.05-0.22,3.54c0.63,2.77-0.79,4.18,0.16,5.92
							c0.95,1.74,0.81,2.58-0.33,4.2c0,0,5.89,0.63,8.26,4.96c2.37,4.33,10.73,1.9,17.65,3.52c6.92,1.61,6.88,6.37,6.82-1.42
							c-1.84,0.07-3.55-2.47-10.37-1.04c-0.76,0.16,0.72-5.78-1.41-3.46c-1.19,1.3-6.57,3.8-7.19,2.61
							c-0.6-1.17,11.96-7.83,9.77-9.33c-2.21-1.52-13.01,0.19-12.14-2.4c0.9-2.68,7.01-3.09,7.29-3.25
							c6.83-4.13-15.59-5.59-15.44-8.18c0.17-2.99,13.37-2.29,14.59,0.04c4.33,8.24,6.49,0.61,10.15,3.28
							c0.64,0.47,3.92,8.01,3.48,6.85c0,0,1.72-0.66,3.59-1.75C419.34,153.05,415.89,146.26,415.17,143.28z"/>
					</g>
				</g>
			</g>
			<g>
				<g>
					<path class="st2" d="M396.96,120.2c0,0-13.48,4.71-9.19,6.38c2.89,1.12-1.23,5.53,2.72,6.4s10.22-6.5,8.34-8.58
						C396.96,122.31,397.05,120.66,396.96,120.2z"/>
				</g>
			</g>
			<g>
				<g>
					<linearGradient id="SVGID_40_" gradientUnits="userSpaceOnUse" x1="393.103" y1="127.7581" x2="393.0128" y2="123.882">
						<stop  offset="2.700000e-07" style="stop-color:#FFFFFF"/>
						<stop  offset="1" style="stop-color:#D36649"/>
					</linearGradient>
					<path class="st51" d="M396.96,120.2c0,0-13.48,4.71-9.19,6.38c0.37,0.14,0.62,0.34,0.79,0.58c2.27,0.93,5.76-1.77,7.47-1.32
						c0.69,0.18,1.91,1.28,2.49,1.67c0.69-1.28,0.91-2.45,0.32-3.11C396.96,122.31,397.05,120.66,396.96,120.2z"/>
				</g>
			</g>
			<g>
				<g>
					<path class="st2" d="M394.31,110.5c-2.54-0.04-9.23,0.07-9.23,0.07s-0.52,2.32-0.57,4.18c-0.05,1.86-0.51,1.76-0.64,2.89
						c-0.13,1.13,0.27,4.02,0.7,5.37c0.43,1.35,0.06,4.37,3.81,3.86c3.75-0.51,6.46-3.2,7.43-5.24c0,0,3.28-0.71,3.31-3.42
						C399.15,115.05,396.85,110.54,394.31,110.5z"/>
				</g>
			</g>
			<g>
				<g>
					<linearGradient id="SVGID_41_" gradientUnits="userSpaceOnUse" x1="384.9483" y1="118.7063" x2="399.1214" y2="118.7063">
						<stop  offset="2.700000e-07" style="stop-color:#FFFFFF"/>
						<stop  offset="1" style="stop-color:#D36649"/>
					</linearGradient>
					<path class="st52" d="M394.31,110.5c-2.54-0.04-9.23,0.07-9.23,0.07s-0.06,0.25-0.13,0.65c0.41-0.06,0.82-0.1,1.27-0.1
						c9.82,0,9.58,14.73,0.39,15.67c0.46,0.14,1.03,0.18,1.77,0.08c3.75-0.51,6.46-3.2,7.43-5.24c0,0,3.28-0.71,3.31-3.42
						C399.15,115.05,396.85,110.54,394.31,110.5z"/>
				</g>
			</g>
			<g>
				<path class="st20" d="M391.05,105.48c-7.36-2.18-7.59,3.11-7.21,4.68c0.38,1.58,0.71,3.98,0.71,3.98
					c0.18-1.28,0.54-3.29,0.54-3.29s2.61,1.57,5.01,0.36c2.72-1.38,4.25-0.37,4.38,1.74c0.36,5.85,2.15,4.26,2.28,3.89
					c0.13-0.37,2.24-1.57,2.16,0.63c-0.08,2.2-1.74,3.66-1.74,3.66c3.62,1.56,2.67-2.71,4.01-5.46c1.34-2.75,1.55-3.79-1.03-7.73
					C397.57,104.01,394.65,106.55,391.05,105.48z"/>
			</g>
			<g>
				<g>
					<g>
						<path class="st2" d="M417.88,155.17c-6.28,1.2-14.74,7.32-17.2,7c-2.46-0.32-4.8-2.4-5.86-1.92
							c-1.06,0.47-2.14,0.66-3.14,0.63c-2.99-0.08-1.2,1.42-1.2,1.42c-0.32,0.09-3.51,1.02-3.51,1.02
							c-2.59-0.12-3.05,2.35-1.83,1.87c1.21-0.48,7.38-0.81,7.38-0.81c-1.34,1.04,0.33,2.5,0.33,2.5c-1.4,1.77,0.54,2.6,0.54,2.6
							c-0.63,1.89,3.36,2.2,5.71,0.52c2.35-1.68,5.73-2.97,14.37-3.82c8.64-0.85,11.01-5.28,12.09-6.85
							C426.66,157.72,424.16,153.98,417.88,155.17z"/>
					</g>
				</g>
				<g>
					<g>
						<linearGradient id="SVGID_42_" gradientUnits="userSpaceOnUse" x1="393.1582" y1="170.517" x2="403.6526" y2="160.0226">
							<stop  offset="2.700000e-07" style="stop-color:#FFFFFF"/>
							<stop  offset="1" style="stop-color:#D36649"/>
						</linearGradient>
						<path class="st53" d="M417.88,155.17c-6.28,1.2-14.74,7.32-17.2,7c-2.46-0.32-4.8-2.4-5.86-1.92
							c-1.06,0.47-2.14,0.66-3.14,0.63c-2.99-0.08-1.2,1.42-1.2,1.42c-0.32,0.09-3.51,1.02-3.51,1.02
							c-2.59-0.12-3.05,2.35-1.83,1.87c1.21-0.48,7.38-0.81,7.38-0.81c-1.34,1.04,0.33,2.5,0.33,2.5c-1.4,1.77,0.54,2.6,0.54,2.6
							c-0.51,1.53,1.99,2.02,4.21,1.27c-0.4-0.47-0.74-0.99-1.07-1.51c-0.35-0.28-0.65-0.61-0.9-0.97c-0.4-0.59-0.6-1.28-1.03-1.85
							c-0.81-1.1-0.22-2.86,0.78-3.58c1.04-0.75,2.77-0.82,3.65,0.27c0.22,0.27,2.28,0.77,3.06,1.09
							c0.31,0.12,20.01-8.76,20.93-8.82C421.75,154.94,420.04,154.76,417.88,155.17z"/>
					</g>
				</g>
			</g>
		</g>
		<g>
			<g>
				<polygon class="st13" points="348.09,171.98 382.61,174.16 410,172.27 375.53,170.78 				"/>
			</g>
			<g>
				<path class="st10" d="M382.56,173.45l0.09,1.28c0.01,0.12,0.14,0.21,0.3,0.2l26.94-1.84c0.09-0.01,0.16-0.12,0.15-0.25
					l-0.04-0.58L382.56,173.45z"/>
			</g>
			<g>
				<g>
					<path class="st13" d="M380.25,148.66c-0.17-1.05-0.55-1.78-1.73-1.75l4.31,27.15c0,0,1.45-0.33,1.26-1.69
						C383.93,171.22,381.17,154.3,380.25,148.66z"/>
				</g>
				<g>
					<path class="st54" d="M378.3,146.91l-34.11,0.96c-0.43,0.01-0.77,0.45-0.68,0.89l4.35,23.25l35.61,1.65l-4.14-25.95
						C379.25,147.23,378.83,146.9,378.3,146.91z"/>
				</g>
				<g>
					<linearGradient id="SVGID_43_" gradientUnits="userSpaceOnUse" x1="364.0499" y1="172.3611" x2="363.2028" y2="159.7248">
						<stop  offset="2.700000e-07" style="stop-color:#FFFFFF"/>
						<stop  offset="1" style="stop-color:#D8DDE0"/>
					</linearGradient>
					<path class="st55" d="M377.37,148.36l-32.29,0.78c-0.41,0.01-0.73,0.43-0.65,0.84l4.12,22.07l33.72,1.56l-3.93-24.5
						C378.26,148.66,377.86,148.34,377.37,148.36z"/>
				</g>
				<g>
					<linearGradient id="SVGID_44_" gradientUnits="userSpaceOnUse" x1="362.9026" y1="167.8746" x2="362.2115" y2="152.4967">
						<stop  offset="2.700000e-07" style="stop-color:#FFFFFF"/>
						<stop  offset="1" style="stop-color:#D8DDE0"/>
					</linearGradient>
					<path class="st56" d="M378.3,146.91l-34.11,0.96c-0.43,0.01-0.77,0.45-0.68,0.89l1.29,6.88c3.64,1.09,5.7-2.6,9.38-1.28
						c4.73,1.71,6.16,6.1,10.25,8.54c11.71,7,16.54-4.51,16.6-4.57l-1.69-10.62C379.25,147.23,378.83,146.9,378.3,146.91z"/>
				</g>
				<g>
					<path class="st13" d="M347.91,173.01c-0.01,0.09,0.06,0.17,0.16,0.18l34.88,1.74c0.22,0.01,0.43-0.15,0.45-0.35l0.1-0.9
						l-35.53-1.65L347.91,173.01z"/>
				</g>
			</g>
		</g>
	</g>
	<g>
		<path class="st2" d="M142.55,191.57c-1.99,4.98-8.76,20.26-0.72,23.77c8.04,3.5,14.21-7.21,19.27-16.71
			C166.17,189.13,147.87,178.3,142.55,191.57z"/>
		<linearGradient id="SVGID_45_" gradientUnits="userSpaceOnUse" x1="155.1667" y1="191.2452" x2="147.9807" y2="201.886">
			<stop  offset="2.700000e-07" style="stop-color:#FFFFFF"/>
			<stop  offset="1" style="stop-color:#D36649"/>
		</linearGradient>
		<path class="st57" d="M146.58,186.54c2.22,0.81,4.04,3.03,3.77,5.46c-0.16,1.4-0.53,2.79-0.63,4.18
			c-0.11,1.43-0.14,2.82-0.61,4.19c-0.86,2.5-2.65,4.71-4.32,6.71c-1.77,2.11-3.72,3.95-5.88,5.51c0.61,1.19,1.54,2.15,2.92,2.75
			c8.04,3.5,14.21-7.21,19.27-16.71C165.24,190.88,153.81,182.24,146.58,186.54z"/>
		<g>
			<path class="st2" d="M230.35,178.35c0,0-7.57,14.47-3.62,32.15c-5.88,9.35-4.9,19.52-8.52,26.17c0,0-10.56,7.82-12.02,10.04
				c-1.46,2.22,0.24,9.07,2.54,10.48c0.89,0.55,3.1-0.05,3.84-1.66c0,0,1.7,2.96,5.11-0.06c0,0,1.7,2.26,4.24,0.26
				c0,0,4.1-0.23,5.35-2.8c1.25-2.57,0.53-10.57,3.87-15.22c3.34-4.65,10.6-12.57,12.2-18.55c1.6-5.99,1.08-8.52,1.4-12.28
				c0.48-5.77,2.14-9.14,1.46-24.21C245.51,167.61,230.35,178.35,230.35,178.35z"/>
			<linearGradient id="SVGID_46_" gradientUnits="userSpaceOnUse" x1="205.6432" y1="216.0179" x2="246.3473" y2="216.0179">
				<stop  offset="2.700000e-07" style="stop-color:#FFFFFF"/>
				<stop  offset="1" style="stop-color:#D36649"/>
			</linearGradient>
			<path class="st58" d="M230.35,178.35c0,0-4.87,9.32-4.75,22.13c1.85-0.71,3.9-0.95,5.86-0.62c5.69,0.97,8.86,6.81,8,12.16
				c-0.73,4.57-2.79,7.51-5.2,12.35c-3.44,6.91-6.13,12.32-5.95,14.03c0.28,2.58-2.63,7.57-4.34,9.47
				c-1.72,1.91-2.69,1.33-5.26,1.48c-2.89,0.16-5.89,0.09-8.73-0.52c-1.5-0.32-2.84-0.95-3.97-1.79c-1.13,2.5,0.52,8.8,2.71,10.15
				c0.89,0.55,3.1-0.05,3.84-1.66c0,0,1.7,2.96,5.11-0.06c0,0,1.7,2.26,4.24,0.26c0,0,4.1-0.23,5.35-2.8
				c1.25-2.57,0.53-10.57,3.87-15.22c3.34-4.65,10.6-12.57,12.2-18.55c1.6-5.99,1.08-8.52,1.4-12.28c0.48-5.77,2.14-9.14,1.46-24.21
				C245.51,167.61,230.35,178.35,230.35,178.35z"/>
		</g>
		<path class="st7" d="M228.18,153.15c-9.29-1.55-20.11-11.85-32.15-8.65c-12.04,3.2-6.09-1.98-24.99,5.33
			c-18.89,7.31-18.12,14.34-20.57,21.33c-2.01,5.75-8.53,18.44-8.53,18.44c-1.68,7.92,15.69,15.54,15.69,15.54
			c-5.79,13.56-2.13,13.71-3.5,24.99c-2.44,20.04,4.57,21.94,4.57,21.94s-5.49-11.12,8.53-13.71c14.02-2.59,30.55,3.05,35.71-5.41
			c5.16-8.46,17.92-7.69,17.92-7.69c0.16-3.44-3.53-2.84-1.58-6.7c1.95-3.86-0.25-9.6,1.28-15.08c1.52-5.48,3.07-10.85,3.07-10.85
			l2.11,8.57c11.12-1.68,25.67-9.29,25.67-9.29s-1.99-11.38-5.42-20.3C241.96,161.1,237.47,154.7,228.18,153.15z"/>
		<linearGradient id="SVGID_47_" gradientUnits="userSpaceOnUse" x1="201.0049" y1="168.4553" x2="201.0049" y2="230.1741">
			<stop  offset="2.700000e-07" style="stop-color:#FFFFFF"/>
			<stop  offset="1" style="stop-color:#005BA5"/>
		</linearGradient>
		<path class="st59" d="M245.34,179.53c-3.06,1.82-6.71,2.72-10.25,2.57c-6.34-0.28,6.46-3.09,8.14-13.38
			c-1.13-3.54-2.76-6.73-4.84-9.3c-3.36,1.4-13.91-5.14-17.41-4.24c-5.97,1.53-8.22,14.94-14.2,16.41
			c-8.35,2.05-33.8,1.02-36.65,0.19c-9.9-2.89-7.36,3.67-9.09,9.57c-1.73,5.91-9.28,19.21-10.44,19.96
			c3.64,2.35,7.04,3.83,7.04,3.83c-0.98,2.29,6.29-12.53,7.62-13.41c7.58-5.02,11.2,10.47,20.65-5.64
			c2.67-4.55,29.19-4.75,29.25,1.27c0.05,5.2-52.5,9.79-37.82,16.21c3.63,1.59,9.44,0.67,11.24,3.18c3.18,4.46-22.01-2-26.58,0.84
			c-4.53,2.82,31.22,22.95,29.91,25.23c-1.34,2.33-11.89-3.19-14.16-5.9c-4.06-4.84-1.64,7.2-3.14,6.81
			c-13.54-3.48-17.19,1.44-20.88,1.13c-0.86,15.6,5,17.19,5,17.19s-5.49-11.12,8.53-13.71c14.02-2.59,30.55,3.05,35.71-5.41
			c5.16-8.46,17.92-7.69,17.92-7.69c0.16-3.44-3.53-2.84-1.58-6.7c1.95-3.86-0.25-9.6,1.28-15.08c1.52-5.48,3.07-10.85,3.07-10.85
			l1.65,8.74c11.12-1.68,26.13-9.46,26.13-9.46S246.65,187.87,245.34,179.53z"/>
		<path class="st2" d="M195.25,138.78c-0.21,0.91-0.19,4.23-3.86,8.23c-3.67,4,7.35,19.35,14.78,17.98
			c7.42-1.37,0.14-10.59,5.62-12.57C219.92,149.48,195.25,138.78,195.25,138.78z"/>
		<linearGradient id="SVGID_48_" gradientUnits="userSpaceOnUse" x1="190.6705" y1="146.7334" x2="213.4358" y2="146.7334">
			<stop  offset="2.700000e-07" style="stop-color:#FFFFFF"/>
			<stop  offset="1" style="stop-color:#D36649"/>
		</linearGradient>
		<path class="st60" d="M195.25,138.78c-0.21,0.91-0.19,4.23-3.86,8.23c-1.36,1.48-0.7,4.51,1.04,7.68c2.88-1.92,6.46-3.1,10.76-3.1
			c2.87,0,5.37,0.53,7.55,1.44c0.29-0.24,0.62-0.45,1.05-0.61C219.92,149.48,195.25,138.78,195.25,138.78z"/>
		<path class="st2" d="M221.06,129c0.08-3.73-0.75-8.42-0.75-8.42s-13.39-0.84-18.49-0.99c-5.1-0.15-10.13,8.68-10.36,15.01
			c-0.2,5.43,6.32,7.16,6.32,7.16c1.75,4.19,6.93,9.83,14.4,11.2c7.47,1.37,7.01-4.72,8-7.39c0.99-2.67,2.06-8.42,1.9-10.7
			C221.93,132.57,220.99,132.73,221.06,129z"/>
		<linearGradient id="SVGID_49_" gradientUnits="userSpaceOnUse" x1="215.0399" y1="135.407" x2="201.9116" y2="137.2035">
			<stop  offset="2.700000e-07" style="stop-color:#FFFFFF"/>
			<stop  offset="1" style="stop-color:#D36649"/>
		</linearGradient>
		<path class="st61" d="M209.57,122.94c2.54,0.57,6.3,1.68,11.1,0.09c-0.18-1.44-0.36-2.45-0.36-2.45s-13.39-0.84-18.49-0.99
			c-5.1-0.15-10.13,8.68-10.36,15.01c-0.2,5.43,6.32,7.16,6.32,7.16c1.75,4.19,6.93,9.83,14.4,11.2c7.25,1.33,7.03-4.38,7.92-7.15
			c-1.21,2.22-1.91,7.43-7.64,5.12c-5.81-2.34-9.79-7.97-9.79-11.96C202.67,130.26,205.47,122.02,209.57,122.94z"/>
		<path class="st12" d="M208.83,109.83c-7.33,1.81-12.93-3.56-18.47,4.09c-5.54,7.66-5.22,9.77-2.78,15.41
			c2.44,5.64,0.13,14.1,7.53,11.32c0,0-3.19-3.09-3.15-7.51c0.04-4.42,4.15-1.83,4.38-1.07c0.23,0.76,3.67,4.12,4.93-7.58
			c0.46-4.23,3.6-6.11,8.93-3.08c4.69,2.66,10.07-0.25,10.07-0.25s0.53,4.05,0.77,6.65c0,0,0.89-4.8,1.8-7.92
			C223.76,116.77,223.78,106.14,208.83,109.83z"/>
		<linearGradient id="SVGID_50_" gradientUnits="userSpaceOnUse" x1="215.6528" y1="121.9466" x2="186.6327" y2="113.3442">
			<stop  offset="0" style="stop-color:#FFFFFF"/>
			<stop  offset="1" style="stop-color:#010101"/>
		</linearGradient>
		<path class="st62" d="M208.83,109.83c-7.33,1.81-12.93-3.56-18.47,4.09c-3.9,5.39-4.89,8.03-4.29,11.09
			c0.29-6.55,4.77-13.05,13.18-13.05c7.11,0,11.06,4.6,12.03,9.95c2.72,1.06,5.52,0.52,7.25-0.05
			C219.63,119.98,220.75,106.89,208.83,109.83z"/>
	</g>
	<g>
		<g>
			<path class="st11" d="M424.81,270.31c-8.14,0-14.73,1.77-14.73,3.96c0,2.19,6.59,3.96,14.73,3.96c8.13,0,14.73-1.77,14.73-3.96
				C439.54,272.09,432.95,270.31,424.81,270.31z"/>
		</g>
		<path class="st11" d="M410.1,274.36L410.1,274.36c0,0.53,6.59,0.96,14.71,0.96c8.12,0,14.71-0.43,14.71-0.96l0,0l3.64-16.99h-36.7
			L410.1,274.36z"/>
		<linearGradient id="SVGID_51_" gradientUnits="userSpaceOnUse" x1="428.3499" y1="273.4546" x2="425.7806" y2="261.8927">
			<stop  offset="2.700000e-07" style="stop-color:#FFFFFF"/>
			<stop  offset="1" style="stop-color:#D8DDE0"/>
		</linearGradient>
		<path class="st63" d="M408.37,266.3c0.17,0.1,3,2.72,8.42,0.57c3.3-1.31,7.09,1.29,10.81,1.67c3.53,0.36,6.83-1.25,9.54,0.44
			c0.46,0.29,1.88,1.33,3.05,2.25l2.96-13.84h-36.7L408.37,266.3z"/>
		<g>
			<linearGradient id="SVGID_52_" gradientUnits="userSpaceOnUse" x1="440.2542" y1="257.2154" x2="418.3875" y2="257.2154">
				<stop  offset="2.700000e-07" style="stop-color:#FFFFFF"/>
				<stop  offset="1" style="stop-color:#D8DDE0"/>
			</linearGradient>
			<path class="st64" d="M407.08,259.7c0-1.11,7.94-2.01,17.73-2.01c9.79,0,17.73,0.9,17.73,2.01l3.45-4.97h-42.35L407.08,259.7z"/>
		</g>
		<g>
			<linearGradient id="SVGID_53_" gradientUnits="userSpaceOnUse" x1="440.2579" y1="259.5879" x2="418.3916" y2="259.5879">
				<stop  offset="2.700000e-07" style="stop-color:#FFFFFF"/>
				<stop  offset="1" style="stop-color:#D8DDE0"/>
			</linearGradient>
			<path class="st65" d="M424.81,256.28c-9.84,0-17.81,1.48-17.81,3.31c0,1.83,7.97,3.31,17.81,3.31c9.84,0,17.81-1.48,17.81-3.31
				C442.62,257.76,434.65,256.28,424.81,256.28z"/>
		</g>
		<g>
			<linearGradient id="SVGID_54_" gradientUnits="userSpaceOnUse" x1="395.3118" y1="254.729" x2="412.4781" y2="254.729">
				<stop  offset="2.700000e-07" style="stop-color:#FFFFFF"/>
				<stop  offset="1" style="stop-color:#D8DDE0"/>
			</linearGradient>
			<path class="st66" d="M424.81,251.02c-11.7,0-21.18,1.66-21.18,3.71c0,2.05,9.48,3.71,21.18,3.71c11.7,0,21.18-1.66,21.18-3.71
				C445.99,252.68,436.51,251.02,424.81,251.02z"/>
		</g>
		<g>
			<path class="st13" d="M424.81,252.24c-10.26,0-18.58,1.11-18.58,2.49s8.32,2.49,18.58,2.49c10.26,0,18.58-1.11,18.58-2.49
				S435.07,252.24,424.81,252.24z"/>
		</g>
		<g>
			<g>
				<path class="st5" d="M416.77,221.33c1.82,7.53,2.82,12.99,4.39,33.84l1.45-0.71c0,0-3.86-30.05-5.58-33.34
					C415.32,217.82,416.74,221.21,416.77,221.33z"/>
			</g>
			<g>
				<path class="st31" d="M403.65,198.03c0,0,13.56,11.95,0.63,4.66c0,0,1.05,14.08,12.75,18.75c0,0,7.62-24.05-2.73-49.87
					C414.29,171.58,398.22,178.6,403.65,198.03z"/>
			</g>
			<g>
				<path class="st5" d="M422.25,200.92c4.02-19.77-7.56-29.68-7.56-29.68c-8.48,26.49,2.34,50.2,2.34,50.2
					c6.54-3.94,5.19-16.64,5.19-16.64C409.85,213,422.25,200.92,422.25,200.92z"/>
			</g>
		</g>
		<g>
			<path class="st5" d="M411.26,226c3.85-7.61-3.07-14.85-3.52-9.43c-0.46,5.42-8.04,6.67-4.3,3.63c3.74-3.03,1.74-5.56,1.74-5.56
				c-10.61-6.38-26.56,0.4-26.56,0.4s18.44-0.29,28.67,12.84c6.92,8.88,12,20.72,14.56,27.46c0.67,0.16,1.33,0.36,1.96,0.6
				C419.15,241.16,407.7,233.04,411.26,226z"/>
		</g>
		<g>
			<path class="st5" d="M422.52,248.71c-0.52,1.84-1.63,3.97-2.48,6.3c0.29,0.04,0.58,0.07,0.87,0.12c1.01-2.76,2.41-6.67,2.74-8.16
				c0.53-2.4,20.38-4.06-5.46-30.54C420.15,227.76,426.77,233.53,422.52,248.71z"/>
		</g>
		<g>
			<g>
				<path class="st31" d="M410.78,243.73c0,0,3.66-4.52-1.16-13.48c0,0-1.53,10.97-1.38-1.46c0,0-2.27-3.77-5.23-4.23
					c-2.96-0.47,1.33,6.61-1.02,6.26c-2.35-0.35-0.14-3.98-1.13-7.28c-0.99-3.3-13.94,0.15-13.94,0.15s5.48,12.57,19.11,18.19
					c7.73,3.18,12.45,8.92,15.1,13.3c0.4,0.08,0.79,0.17,1.18,0.28C419.9,251.65,416.01,246.64,410.78,243.73z"/>
			</g>
			<g>
				<path class="st5" d="M410.78,243.73c0,0-0.13-9.75-9.42-11.86c-9.29-2.11-14.44-8.19-14.44-8.19s5.48,12.57,19.11,18.19
					c7.73,3.18,12.45,8.92,15.1,13.3c0.43,0.08,0.85,0.18,1.26,0.3C420.08,251.81,416.27,246.96,410.78,243.73z"/>
			</g>
		</g>
		<g>
			<g>
				<path class="st31" d="M444.43,194.17c-2.2-2.69-2.18-5.44-2.18-5.44c-1.69,2.31-6.43,6.05-6.43,6.05
					c7.99,20.45-2.33,2.9-2.33,2.9c-11.13,15.15-2.96,20.84-4.8,33.26c-1.51,10.21-7.44,20.6-9.5,23.98
					c0.69,0.05,1.37,0.15,2.04,0.29c2.04-4.76,7.29-17.62,7.96-25.04c0.84-9.22,4.28-4.21,9.94-5.28c5.66-1.07,5.53-5.93,5.53-5.93
					c-3.13-1.14-7.18,0.61-7.18,0.61s0.07-1.84,2.46-1.6c2.39,0.24,2.87-1.63,2.87-1.63s0.37-0.39,3.98-1.13
					c3.6-0.74,5.17-8.65,5.17-8.65c-3.72-1.77-8.98,1.1-8.98,1.1c1.97-2.23,7.66-5.44,7.66-5.44c10.79-7.27,4.89-16.22,4.89-16.22
					C443.18,184.32,444.43,194.17,444.43,194.17z"/>
			</g>
			<g>
				<path class="st5" d="M444.43,194.17c-2.2-2.69-2.18-5.44-2.18-5.44c-1.69,2.31-6.43,6.05-6.43,6.05
					c7.99,20.45-2.33,2.9-2.33,2.9c-1.81,2.47-3.12,4.68-4.03,6.72c0,0,0,0,0,0.01c-3.26,7.25-1.63,12.21-0.83,18.04
					c0.35,2.57,0.54,5.31,0.07,8.5c-1.51,10.21-7.44,20.6-9.5,23.98c0.69,0.05,1.37,0.15,2.04,0.29c2.04-4.76,7.29-17.63,7.96-25.04
					c0.84-9.22,4.28-4.21,9.94-5.28c5.66-1.07-6.68-3.21-6.68-3.21c-3.13-1.14,13.23-20.87,13.23-20.87
					c10.79-7.27,9.84-14.81,9.84-14.81C443.18,184.32,444.43,194.17,444.43,194.17z"/>
			</g>
			<g>
				<path class="st31" d="M429.46,204.41c-3.26,7.25-1.63,12.21-0.83,18.04c0,0,2.83-2.84,2.46-7.22
					C430.71,210.83,428.13,210.83,429.46,204.41z"/>
			</g>
		</g>
		<g>
			<g>
				<path class="st31" d="M440.65,218.1c-0.32,3.43,2.57,6.55,0.34,7.35c-2.23,0.81,0.57-6.98-2.24-5.94
					c-2.81,1.05-4.29,5.19-4.29,5.19c2.62,12.16-1.07,1.71-1.07,1.71c-2.94,9.74,1.54,13.45,1.54,13.45
					c-5.68,4.86-8.67,12.52-9.93,16.6c0.32,0.15,0.63,0.32,0.94,0.49c1.04-4.43,4.22-13.77,13.29-19.86
					c12.24-8.21,15.11-21.62,15.11-21.62S440.97,214.67,440.65,218.1z"/>
			</g>
			<g>
				<path class="st5" d="M441.82,226.37c-8.69,3.91-6.88,13.49-6.88,13.49c-5.94,5.34-8.79,12.65-9.98,16.58
					c0.34,0.16,0.66,0.33,0.98,0.51c1.04-4.43,4.22-13.77,13.29-19.86c12.24-8.21,15.11-21.62,15.11-21.62
					S450.51,222.45,441.82,226.37z"/>
			</g>
		</g>
		<g>
			<path class="st5" d="M444.92,238.65c0,0-1.68,0.88,0.07,2.74c1.74,1.87-2.67,0.3-1.98-2.21c0.7-2.51-4.84-0.16-3.85,3.79
				c0.94,3.75-7.99,5.91-13.48,12.33c0.3,0.12,0.59,0.23,0.88,0.36c2.45-2.46,8.2-7.87,14.7-11.31c8.62-4.57,19.85-1.99,19.85-1.99
				S452.56,237.17,444.92,238.65z"/>
		</g>
	</g>
	<linearGradient id="SVGID_55_" gradientUnits="userSpaceOnUse" x1="240.583" y1="271.853" x2="241.3724" y2="230.512">
		<stop  offset="2.700000e-07" style="stop-color:#FFFFFF"/>
		<stop  offset="1" style="stop-color:#C4C9CE"/>
	</linearGradient>
	<polygon class="st67" points="71.1,278.42 409.98,281.35 409.98,229.98 71.1,266.62 	"/>
	<linearGradient id="SVGID_56_" gradientUnits="userSpaceOnUse" x1="52.7074" y1="253.8751" x2="261.2122" y2="228.9132">
		<stop  offset="2.700000e-07" style="stop-color:#FFFFFF"/>
		<stop  offset="0.9517" style="stop-color:#D8DDE0"/>
	</linearGradient>
	<polygon class="st68" points="-0.36,244.32 56.91,269.28 425.95,224.74 330.51,212.51 	"/>
	<g>
		<g>
			<polygon class="st10" points="177.41,230.46 236.44,234.85 312.28,228.29 261.4,221.75 			"/>
		</g>
		<g>
			<path class="st12" d="M177.33,231.76c-0.02,0.31,0.13,0.57,0.33,0.58l58.05,4.27c0.34,0.03,0.63-0.18,0.64-0.46l0.19-2.96
				l-59.13-2.77L177.33,231.76z"/>
		</g>
		<g>
			<g>
				<path class="st10" d="M241.26,174.75c-1.91,13.12-7.7,52.98-8.04,55.7c-0.41,3.26,2.72,3.89,2.72,3.89l8.98-63.82
					C242.42,170.59,241.62,172.32,241.26,174.75z"/>
			</g>
			<g>
				<path class="st5" d="M318.9,168.49l-73.51,2.02c-1.12,0.03-2.01,0.84-2.17,1.97l-8.64,61.02l77.79-7.59l8.1-55.42
					C320.6,169.45,319.84,168.47,318.9,168.49z"/>
			</g>
			<g>
				<linearGradient id="SVGID_57_" gradientUnits="userSpaceOnUse" x1="263.5579" y1="90.4265" x2="267.7657" y2="123.6212">
					<stop  offset="2.700000e-07" style="stop-color:#FFFFFF"/>
					<stop  offset="1" style="stop-color:#677284"/>
				</linearGradient>
				<path class="st69" d="M317.03,171.54l-69.64,2.17c-1.05,0.03-1.9,0.8-2.05,1.87l-8.18,57.67l73.67-7.19l7.68-52.63
					C318.66,172.44,317.93,171.51,317.03,171.54z"/>
			</g>
			<g>
				<linearGradient id="SVGID_58_" gradientUnits="userSpaceOnUse" x1="281.5622" y1="216.4829" x2="279.9837" y2="181.3634">
					<stop  offset="2.700000e-07" style="stop-color:#FFFFFF"/>
					<stop  offset="1" style="stop-color:#D8DDE0"/>
				</linearGradient>
				<path class="st70" d="M318.9,168.49l-73.51,2.02c-1.12,0.03-2.01,0.84-2.17,1.97l-3.5,24.73c0.13,0.13,10.64,26.62,35.86,8.83
					c8.79-6.2,11.71-16.66,21.93-21.2c7.95-3.54,12.67,4.87,20.58,1.87l2.37-16.23C320.6,169.45,319.84,168.47,318.9,168.49z"/>
			</g>
			<g>
				<path class="st10" d="M234.5,233.51l0.23,2.13c0.05,0.49,0.49,0.84,0.97,0.79l76.25-7.7c0.2-0.02,0.35-0.22,0.33-0.44
					l-0.19-2.35L234.5,233.51z"/>
			</g>
		</g>
	</g>
	<g>
		<path class="st2" d="M211.54,222.55c0,0-2.12-0.56-2.76-0.77c0,0,3.73-2.84-2.26-2.96c-2.02-0.04-4.16-0.52-6.25-1.56
			c-2.09-1.04-6.96,2.91-11.93,3.31c-4.97,0.41-21.36-12.66-33.84-15.64c-12.48-2.98-17.85,4.29-15.74,7.67
			c2.02,3.25,6.36,12.34,23.59,14.85c17.24,2.51,23.9,5.42,28.45,9c4.55,3.58,12.57,3.34,11.49-0.52c0,0,3.96-1.48,1.32-5.17
			c0,0,3.48-2.78,0.9-4.99c0,0,8.14-0.38,10.53,0.69C217.42,227.54,216.73,222.54,211.54,222.55z"/>
		<linearGradient id="SVGID_59_" gradientUnits="userSpaceOnUse" x1="212.062" y1="233.6324" x2="154.0213" y2="206.4777">
			<stop  offset="2.700000e-07" style="stop-color:#FFFFFF"/>
			<stop  offset="1" style="stop-color:#D36649"/>
		</linearGradient>
		<path class="st71" d="M211.54,222.55c0,0-2.12-0.56-2.76-0.77c0,0,3.73-2.84-2.26-2.96c-2.02-0.04-4.16-0.52-6.25-1.56
			c-2.09-1.04-6.96,2.91-11.93,3.31c-4.97,0.41-21.36-12.66-33.84-15.64c-4.29-1.03-7.74-0.84-10.33-0.01
			c1.84,0.2,40.51,19.84,41.13,19.62c1.61-0.56,5.78-1.38,6.24-1.89c1.88-2.12,5.34-1.81,7.35-0.21c1.94,1.54,2.96,5.12,1.23,7.25
			c-0.9,1.11-1.37,2.48-2.23,3.62c-0.53,0.7-1.17,1.34-1.89,1.86c-0.7,1.01-1.44,2.01-2.28,2.93c4.38,1.71,9.44,0.95,8.56-2.16
			c0,0,3.96-1.48,1.32-5.17c0,0,3.48-2.78,0.9-4.99c0,0,8.14-0.38,10.53,0.69C217.42,227.54,216.73,222.54,211.54,222.55z"/>
	</g>
	<polygon class="st34" points="56.91,278.42 425.95,233 425.95,224.74 56.91,269.28 	"/>
	<linearGradient id="SVGID_60_" gradientUnits="userSpaceOnUse" x1="265.5436" y1="5.7415" x2="265.5436" y2="62.2223">
		<stop  offset="2.700000e-07" style="stop-color:#FFFFFF"/>
		<stop  offset="1" style="stop-color:#C4C9CE"/>
	</linearGradient>
	<path class="st72" d="M270.04,45.99h-3.48V0.11h-2.03v45.88h-3.48l-17.43,16.79c-1.46,1.41-0.46,3.87,1.56,3.87h40.72
		c2.03,0,3.02-2.47,1.56-3.87L270.04,45.99z"/>
	<linearGradient id="SVGID_61_" gradientUnits="userSpaceOnUse" x1="353.5478" y1="5.7415" x2="353.5478" y2="62.2223">
		<stop  offset="2.700000e-07" style="stop-color:#FFFFFF"/>
		<stop  offset="1" style="stop-color:#C4C9CE"/>
	</linearGradient>
	<path class="st73" d="M358.04,45.99h-3.48V0.11h-2.03v45.88h-3.48l-17.43,16.79c-1.46,1.41-0.46,3.87,1.56,3.87h40.72
		c2.03,0,3.02-2.47,1.56-3.87L358.04,45.99z"/>
</g>
</svg>
