<?xml version="1.0" encoding="utf-8"?>
<!-- Generator: Adobe Illustrator 25.2.0, SVG Export Plug-In . SVG Version: 6.00 Build 0)  -->
<svg version="1.1" id="Layer_1" xmlns="http://www.w3.org/2000/svg" xmlns:xlink="http://www.w3.org/1999/xlink" x="0px" y="0px"
	 viewBox="0 0 841.89 595.28" style="enable-background:new 0 0 841.89 595.28;" xml:space="preserve">
<style type="text/css">
	.st0{fill:#6DBB4E;}
</style>
<g id="XMLID_5_">
	<path id="XMLID_14_" class="st0" d="M585.47,243.25c0,85.36-69.19,154.55-154.55,154.55c-2.82,0-5.64-0.07-8.42-0.23
		c4.7-5.99,20.14-26.24,26.8-41.79c7.91-18.45,10.34-21.9,9.33-37.72c-1.01-15.82-2.84-16.83,2.43-18.86
		c3.71-1.43,24.27-8.72,37.11-26.3c5.55-7.59,8.9-22.21,9.56-35c2.23-43.19,1.64-76.8,0.58-77c-1.93-0.37-10.97,23-20.14,32.51
		c-9.33,9.67-27.04,0.95-48.67,34.61c-6.64,10.33-0.36,30.35,1.08,38.33c1.83,10.14,7.32,32.28,4.07,33.91
		c-3.24,1.62-8.8-28.7-33.68-35.73c-24.17-6.83-30.28-10.68-29.34-18.88c0.69-5.97-11.83,12.39-14.26,16.25s-24.54,36.71-1.22,56.78
		c23.32,20.08,74.22-5.88,79.7-0.81c5.23,4.84-16.72,57.07-41.49,77.66c-72.71-12.58-128-75.97-128-152.27
		c0-85.36,69.19-154.55,154.55-154.55C516.28,88.7,585.47,157.89,585.47,243.25z"/>
	<g id="XMLID_29_">
		<path id="XMLID_30_" class="st0" d="M237.54,442.08c-3.57-3.16-7.63-6.57-12.66-6.57c-5.19,0-9.41,3.57-9.41,8.92
			c0,3.08,0.57,5.84,8.44,10.63l4.62,2.84c10.71,6.57,13.63,9.65,13.63,16.47c0,10.46-6.98,16.71-17.2,16.71
			c-7.54,0-13.14-3.65-17.68-9.49l4.71-3.73c2.84,4.54,7.38,8.11,12.98,8.11c6.08,0,11.11-4.54,11.11-10.79
			c0-4.71-0.32-6.33-10.63-12.49l-5.27-3.16c-5.76-3.41-10.79-7.38-10.79-14.68c0-9.17,6.98-14.44,15.74-14.44
			c6.08,0,11.68,3.24,16.06,7.3L237.54,442.08z"/>
		<path id="XMLID_32_" class="st0" d="M263.34,450.52c3.65-3.25,5.6-4.87,10.63-4.87c7.63,0,17.44,5.84,17.44,22.88
			c0,16.47-10.71,22.31-17.68,22.31c-3.57,0-6.17-0.89-9.25-2.51v18.25h-6.08v-44.05c0-5.52-0.32-10.79-2.03-16.06l5.76-0.73
			L263.34,450.52z M264.47,482.16c2.43,1.95,5.27,3.57,8.27,3.57c7.14,0,12.57-6.17,12.57-17.44c0-14.2-7.46-17.52-11.44-17.52
			c-4.95,0-7.54,3.57-9.41,7.54V482.16z"/>
		<path id="XMLID_35_" class="st0" d="M316.63,489.95h-6.08v-24.9c0-7.22-0.57-13.06-1.7-18.5h5.92l1.38,8.27
			c3.33-5.11,6.98-9.17,13.47-9.17c8.11,0,10.06,7.95,10.06,14.52h-6.08c-0.16-3.24,0.32-9.41-4.3-9.41
			c-4.46,0-12.66,6.81-12.66,21.09V489.95z"/>
		<path id="XMLID_37_" class="st0" d="M353.62,468.29c0-16.79,8.92-22.63,17.2-22.63c15.33,0,17.28,15.58,17.28,22.63
			c0,16.79-8.92,22.55-17.28,22.55C363.27,490.84,353.62,485.81,353.62,468.29z M382.01,468.29c0-7.46-1.7-17.52-11.19-17.52
			c-9.49,0-11.11,10.06-11.11,17.52c0,7.46,1.62,17.44,11.11,17.44C380.31,485.73,382.01,475.75,382.01,468.29z"/>
		<path id="XMLID_40_" class="st0" d="M428.81,446.55h6.08v21.01c0,7.54,0.16,15.01,1.87,22.39H431l-1.38-8.36
			c-2.84,4.79-8.68,9.25-14.28,9.25c-7.71,0-10.95-6.57-10.95-14.11v-30.18h6.08v28.39c0,4.06,0,10.79,5.35,10.79
			c6,0,12.98-6.73,12.98-21.42V446.55z"/>
		<path id="XMLID_42_" class="st0" d="M481.3,451.66H465.8v24.74c0,4.22,0.08,9.33,5.6,9.33c4.62,0,7.46-3.81,9.17-7.63l5.84,1.46
			c-2.92,6.25-7.87,11.28-15.17,11.28c-7.06,0-11.52-3.41-11.52-16.39v-22.8h-9.33v-5.11h9.33v-13.3h6.08v13.3h15.49V451.66z"/>
		<path id="XMLID_44_" class="st0" d="M501.25,489.95v-58.41h12.25c6.73,0,18.33,0.81,18.33,14.76c0,5.6-2.92,9.9-7.71,12.57
			c6.65,3.25,10.22,7.63,10.22,15.17c0,8.52-6.17,15.9-16.39,15.9H501.25z M507.33,457.01h7.06c5.43,0,11.36-3.98,11.36-10.95
			c0-9.65-8.11-9.41-11.84-9.41h-6.57V457.01z M517.55,484.84c5.35,0,10.71-3.16,10.71-10.46c0-6.49-4.06-12.25-13.3-12.25h-7.63
			v22.71H517.55z"/>
		<path id="XMLID_48_" class="st0" d="M548.3,468.29c0-16.79,8.92-22.63,17.2-22.63c15.33,0,17.28,15.58,17.28,22.63
			c0,16.79-8.92,22.55-17.28,22.55C557.95,490.84,548.3,485.81,548.3,468.29z M576.69,468.29c0-7.46-1.7-17.52-11.19-17.52
			c-9.49,0-11.11,10.06-11.11,17.52c0,7.46,1.62,17.44,11.11,17.44C574.98,485.73,576.69,475.75,576.69,468.29z"/>
		<path id="XMLID_51_" class="st0" d="M617.49,466.5l17.12,23.44h-7.71l-12.82-18.74l-12.65,18.74h-7.71l17.04-23.2l-13.79-20.2
			h7.06l10.14,15.25l9.9-15.25h6.9L617.49,466.5z"/>
	</g>
</g>
</svg>
